<svg width="199" height="46" viewBox="0 0 199 46" fill="none" xmlns="http://www.w3.org/2000/svg">
<path d="M190.432 22.7891C187.624 21.5721 186.817 19.1207 186.186 16.581C185.729 14.7997 185.8 12.9655 185.782 11.149C185.782 9.9144 185.642 8.69748 185.133 7.53347C184.712 6.59873 184.08 6.03436 182.975 6.10491C182.08 6.15782 181.167 6.052 180.255 6.06964C179.799 6.06964 179.658 5.92855 179.658 5.45236C179.676 3.8298 179.676 2.22488 179.658 0.602318C179.658 0.126132 179.816 0.0026761 180.272 0.0026761C182.115 0.0203126 183.957 -0.0325968 185.8 0.0379493C189.677 0.179041 192.572 3.26543 192.66 7.30419C192.695 9.06785 192.643 10.8315 192.695 12.5951C192.748 14.8526 193.362 16.9337 194.801 18.715C195.52 19.6145 196.398 20.2847 197.573 20.4081C198.064 20.461 198.117 20.7079 198.117 21.1136C198.1 22.2247 198.117 23.3534 198.117 24.4645C198.117 24.7643 198.152 25.0465 197.731 25.1171C195.397 25.4698 194.327 27.1982 193.502 29.1382C192.871 30.602 192.678 32.1893 192.695 33.7766C192.713 35.3286 192.713 36.8806 192.695 38.4503C192.678 42.6654 189.554 46.1574 185.168 45.9634C183.571 45.8929 181.957 45.9282 180.343 45.9634C179.851 45.9634 179.676 45.84 179.693 45.3285C179.729 43.7412 179.729 42.1539 179.693 40.5667C179.676 40.0552 179.851 39.9141 180.343 39.9317C181.273 39.967 182.22 39.9141 183.15 39.9494C184.062 39.9847 184.641 39.579 185.045 38.803C185.694 37.5332 185.835 36.1752 185.835 34.7819C185.835 32.348 185.8 29.8966 186.607 27.5509C187.256 25.5404 188.133 23.6356 190.432 22.7891ZM144.25 18.1507C145.109 15.7344 145.109 13.1948 145.109 10.6728C145.109 9.49112 145.32 8.34475 145.864 7.26892C146.268 6.49291 146.847 6.08727 147.759 6.12255C148.654 6.15782 149.566 6.052 150.479 6.08727C151.11 6.10491 151.251 5.858 151.233 5.25836C151.198 3.75925 151.198 2.26015 151.233 0.761046C151.251 0.179041 151.075 0.0026761 150.514 0.0026761C148.847 0.0379491 147.18 0.00267617 145.513 0.0203127C141.407 0.0379492 138.319 3.08907 138.249 7.21601C138.231 8.71512 138.266 10.2142 138.231 11.7133C138.196 13.2653 138.056 14.8173 137.442 16.2812C136.617 18.2917 135.547 20.073 133.125 20.4434C132.792 20.4963 132.792 20.7079 132.792 20.9549C132.792 22.1541 132.809 23.3711 132.792 24.5703C132.792 24.9936 132.95 25.1171 133.336 25.17C134.441 25.3111 135.283 25.9284 135.968 26.7573C137.249 28.2916 137.863 30.0906 138.091 32.0659C138.354 34.4115 138.144 36.7572 138.231 39.1028C138.354 42.6478 141.249 45.7694 144.671 45.9458C146.654 46.0516 148.636 45.9634 150.637 45.9987C151.128 45.9987 151.233 45.8047 151.216 45.3638C151.198 44.5172 151.216 43.6531 151.216 42.8065C151.198 41.907 151.514 40.6901 151.058 40.1787C150.531 39.579 149.303 40.0023 148.373 39.9847C146.443 39.9494 145.969 39.5967 145.408 37.7095C144.987 36.2986 145.092 34.8701 145.074 33.4239C145.057 31.3957 144.916 29.3675 144.232 27.4451C143.513 25.4169 142.6 23.5298 140.319 22.7891C142.6 22.0483 143.548 20.1788 144.25 18.1507Z" fill="#1E418D"/>
<path d="M180.624 30.2845C180.624 32.5949 180.782 34.9229 180.606 37.2333C180.536 38.1504 180.115 38.3973 179.36 38.4149C177.027 38.4326 174.693 38.4502 172.342 38.4502C171.377 38.4502 170.412 38.4149 169.447 38.4149C168.604 38.4149 168.236 38.0093 168.236 37.1804C168.236 34.3938 168.236 31.6072 168.201 28.8207C168.166 25.8224 168.376 26.1399 165.481 26.1223C162.972 26.1046 162.99 26.1223 162.972 28.6267C162.937 31.4661 163.077 34.3232 162.902 37.1627C162.849 38.0446 162.463 38.4326 161.603 38.4326C158.357 38.4326 155.111 38.4326 151.865 38.4326C150.953 38.4326 150.532 38.0975 150.497 37.0745C150.374 32.736 150.339 28.3974 150.532 24.0588C150.567 23.3181 151.041 22.8066 151.514 22.3481C153.286 20.602 155.076 18.8737 156.866 17.1453C159.024 15.0818 161.165 13.0183 163.358 10.9725C165.604 8.87376 165.516 8.83848 167.762 10.9549C171.658 14.6409 175.483 18.3798 179.36 22.0482C180.255 22.8948 180.694 23.8295 180.641 25.0641C180.589 26.8277 180.624 28.5561 180.624 30.2845ZM156.761 26.0694C156.182 26.0694 155.603 26.0694 155.006 26.0694C154.287 26.0517 153.918 26.3868 153.918 27.1276C153.918 28.2387 153.918 29.3498 153.918 30.4609C153.918 31.1487 154.269 31.4838 154.936 31.4838C156.094 31.4838 157.269 31.4838 158.428 31.4838C159.077 31.4838 159.48 31.1839 159.551 30.5138C159.673 29.385 159.656 28.2386 159.568 27.0923C159.515 26.4045 159.112 26.0517 158.41 26.0517C157.866 26.087 157.305 26.0694 156.761 26.0694ZM174.395 31.3779C174.974 31.3779 175.57 31.3603 176.149 31.3779C176.816 31.4132 177.114 31.131 177.097 30.4432C177.062 29.3321 177.062 28.221 177.097 27.1099C177.114 26.4221 176.799 26.1752 176.149 26.1752C174.974 26.1928 173.816 26.1928 172.64 26.1752C171.991 26.1575 171.64 26.475 171.622 27.1099C171.605 28.221 171.587 29.3321 171.622 30.4432C171.64 31.0781 171.991 31.3956 172.64 31.3603C173.237 31.3427 173.816 31.3779 174.395 31.3779ZM177.588 6.22828C177.588 5.62864 177.343 5.27591 176.728 5.25827C175.851 5.24063 174.974 5.25827 174.096 5.25827C173.605 5.25827 173.342 5.50518 173.36 6.01664C173.377 6.75737 173.36 7.48047 173.36 8.22121C173.36 8.50339 173.447 8.87376 173.131 9.01485C172.78 9.19121 172.552 8.83848 172.324 8.62684C170.675 7.05719 169.043 5.45227 167.376 3.90026C165.2 1.87206 165.674 2.10133 163.814 3.84735C157.726 9.57922 151.69 15.3993 145.654 21.2017C145.32 21.5191 144.829 21.8719 144.952 22.3481C145.162 23.2122 145.97 23.6002 146.654 24.0059C147.215 24.3586 147.584 23.8472 147.917 23.5297C149.935 21.625 151.953 19.7026 153.971 17.7802C157.533 14.394 161.095 11.0078 164.639 7.58629C165.271 6.98665 165.744 6.89847 166.411 7.53338C169.482 10.4963 172.605 13.424 175.693 16.3693C178.22 18.7678 180.729 21.184 183.256 23.5826C183.536 23.8472 183.852 24.2175 184.221 24.0764C184.993 23.7766 185.73 23.2828 186.063 22.5421C186.344 21.9248 185.73 21.431 185.291 21.0077C182.975 18.7678 180.659 16.5456 178.308 14.3234C177.781 13.8296 177.536 13.2652 177.571 12.5422C177.623 11.5545 177.588 10.5492 177.588 9.54394C177.588 8.45048 177.571 7.33938 177.588 6.22828Z" fill="#5888EC"/>
<path d="M111.561 0.990318C111.561 1.87214 111.526 2.75397 111.579 3.6358C111.614 4.32362 111.35 4.49998 110.719 4.46471C109.701 4.4118 108.666 4.49999 107.648 4.42944C106.876 4.37653 106.648 4.62344 106.648 5.39945C106.683 10.0908 106.648 14.7997 106.683 19.491C106.683 20.2318 106.508 20.4787 105.771 20.4258C104.981 20.3552 104.191 20.3729 103.402 20.4258C102.77 20.461 102.63 20.2318 102.63 19.6321C102.647 14.8703 102.63 10.126 102.665 5.36417C102.665 4.6058 102.489 4.32362 101.7 4.37653C100.63 4.44707 99.5417 4.35889 98.4538 4.4118C97.8572 4.42944 97.6993 4.2178 97.7344 3.65343C97.7695 2.85979 97.787 2.06615 97.7344 1.2725C97.6818 0.584678 97.8923 0.37304 98.5942 0.37304C102.84 0.408313 107.069 0.390677 111.315 0.390677C112.631 0.390677 113.947 0.408313 115.263 0.37304C115.842 0.355404 116.141 0.549405 116.404 1.0785C117.421 3.12434 118.509 5.1349 119.65 7.30419C120.229 6.246 120.738 5.29363 121.229 4.35889C121.826 3.21252 122.44 2.08378 123.019 0.919772C123.194 0.567042 123.422 0.408313 123.843 0.408313C124.931 0.42595 126.002 0.443586 127.09 0.408313C127.791 0.390677 127.704 0.637588 127.458 1.09614C125.686 4.34126 123.949 7.58637 122.177 10.8315C121.808 11.5017 121.633 12.1542 121.65 12.9126C121.685 15.1172 121.633 17.3217 121.685 19.5263C121.703 20.2494 121.457 20.4258 120.79 20.3905C120.036 20.3376 119.264 20.3376 118.509 20.3905C117.895 20.4258 117.72 20.2141 117.72 19.5968C117.755 17.2512 117.72 14.9055 117.737 12.5422C117.737 12.119 117.667 11.7486 117.457 11.3606C115.632 7.99201 113.807 4.6058 112 1.21959C111.929 1.09614 111.842 0.990318 111.772 0.884499C111.684 0.955045 111.631 0.972682 111.561 0.990318ZM51.5874 10.4611C51.5874 4.76453 46.9025 0.0379462 41.235 0.00267317C35.6377 -0.0149633 30.8826 4.76453 30.9001 10.3729C30.9177 16.1577 35.4973 20.7785 41.235 20.7785C46.92 20.7785 51.5874 16.1224 51.5874 10.4611ZM47.5517 10.4259C47.5692 13.8297 44.639 16.7221 41.1823 16.7045C37.7608 16.6868 34.9534 13.865 34.9534 10.4259C34.9358 6.93382 37.7432 4.12962 41.235 4.12962C44.7092 4.14725 47.5341 6.9691 47.5517 10.4259ZM97.7519 19.7732C96.1728 17.551 94.6111 15.3288 93.0144 13.1242C92.681 12.6657 92.6284 12.4188 93.225 12.1542C93.8917 11.8544 94.4708 11.3782 94.9094 10.7786C96.3658 8.80329 96.6816 6.634 95.6639 4.39417C94.6111 2.06615 92.7337 0.72577 90.207 0.549405C88.0312 0.390677 85.8204 0.514132 83.6271 0.478859C83.1182 0.478859 82.9954 0.672861 82.9954 1.14905C83.013 7.37474 83.013 13.6004 82.9954 19.8261C82.9954 20.267 83.1007 20.461 83.5745 20.4434C84.5044 20.4081 85.4519 20.4081 86.3819 20.4434C86.8907 20.461 87.0311 20.2847 87.0311 19.7908C87.0135 18.0272 87.0135 16.2635 87.0135 14.4999C87.0135 13.4593 87.0135 12.4188 87.0135 11.29C87.4522 11.5546 87.575 11.8897 87.768 12.1719C89.4876 14.7292 91.1896 17.2865 92.9091 19.8438C93.1197 20.1612 93.2952 20.461 93.7689 20.461C95.1726 20.4258 96.5763 20.4434 98.1555 20.4434C97.98 20.1083 97.8748 19.9319 97.7519 19.7732ZM87.0135 4.90562C87.0135 4.53526 87.1715 4.37653 87.5399 4.39417C88.2418 4.4118 88.9437 4.35889 89.628 4.4118C91.0843 4.51762 92.1371 5.62872 92.1196 6.9691C92.102 8.29183 90.979 9.36766 89.5578 9.45585C87.0135 9.61457 87.0135 9.61457 87.0311 6.84564C87.0135 6.19309 87.0311 5.55818 87.0135 4.90562ZM30.1106 19.6321C28.5489 17.4276 26.9873 15.2406 25.4257 13.0361C25.1976 12.7186 24.987 12.507 25.5485 12.1895C27.9524 10.8491 29.1455 8.15074 28.5489 5.64636C27.8822 2.84215 25.4608 0.637588 22.6884 0.514132C20.4776 0.408313 18.2492 0.478859 16.0383 0.443586C15.5821 0.443586 15.4242 0.602315 15.4242 1.06086C15.4418 7.30419 15.4418 13.5652 15.4242 19.8085C15.4242 20.267 15.5646 20.4258 16.0208 20.4081C16.9332 20.3728 17.8281 20.3552 18.7405 20.4081C19.3546 20.4434 19.4599 20.1965 19.4599 19.6498C19.4423 17.1806 19.4423 14.7115 19.4423 12.2601C19.4423 11.9602 19.4599 11.6428 19.495 11.1666C19.7933 11.5722 19.9863 11.8191 20.1617 12.0837C21.8988 14.6586 23.6184 17.2335 25.3379 19.8261C25.5485 20.1436 25.7064 20.4434 26.1977 20.4434C27.6014 20.4081 29.0051 20.4258 30.5843 20.4258C30.3913 20.0554 30.2509 19.8438 30.1106 19.6321ZM19.4599 5.01144C19.4423 4.57053 19.6003 4.37653 20.0565 4.39417C20.7232 4.42944 21.39 4.37653 22.0568 4.4118C23.5131 4.51762 24.5834 5.62872 24.5483 6.95146C24.5133 8.34474 23.3903 9.40294 21.9164 9.45585C19.4599 9.54403 19.4599 9.54403 19.4599 6.93382C19.4774 6.29891 19.495 5.64636 19.4599 5.01144ZM68.7828 19.6145C68.7828 20.1965 68.8881 20.4258 69.5373 20.4258C73.0466 20.3905 76.5559 20.4081 80.0652 20.4258C80.5916 20.4258 80.8021 20.3023 80.767 19.7379C80.7144 18.9267 80.7144 18.0977 80.767 17.2688C80.8197 16.581 80.6091 16.3517 79.9072 16.3694C77.8017 16.4223 75.6961 16.3694 73.5905 16.4046C72.9764 16.4223 72.7659 16.2106 72.801 15.5934C72.8536 14.7821 72.8536 13.9532 72.801 13.1242C72.7659 12.4717 72.9589 12.2601 73.6256 12.2777C75.4154 12.3306 77.1876 12.2777 78.9773 12.2953C79.5037 12.2953 79.7142 12.1542 79.6792 11.6075C79.6441 10.7609 79.6441 9.89676 79.6792 9.05021C79.7142 8.45056 79.5212 8.23893 78.8896 8.23893C77.0998 8.2742 75.3276 8.23892 73.5379 8.25656C72.9589 8.2742 72.7659 8.0802 72.801 7.49819C72.8536 6.70455 72.8536 5.91091 72.801 5.11726C72.7659 4.48235 72.994 4.32362 73.5905 4.34126C75.6961 4.37653 77.8017 4.32362 79.9072 4.37653C80.6267 4.39417 80.8197 4.16489 80.767 3.47707C80.7144 2.75397 80.7144 2.01324 80.767 1.2725C80.8021 0.637588 80.6267 0.408313 79.9599 0.408313C76.5033 0.443586 73.0642 0.443586 69.6075 0.408313C68.9408 0.408313 68.7653 0.602315 68.7828 1.25487C68.8179 4.27071 68.8004 7.30419 68.8004 10.32C68.7828 13.4417 68.8004 16.5281 68.7828 19.6145ZM0.000930608 19.5616C-0.0166158 20.267 0.211488 20.4787 0.895797 20.4258C1.68539 20.3729 2.47497 20.3729 3.26456 20.4258C3.87869 20.461 4.0717 20.267 4.05415 19.6498C4.01906 18.0448 4.08924 16.4223 4.01906 14.7997C3.98396 14.0413 4.26471 13.8473 4.96656 13.8826C5.80879 13.9355 6.66856 13.9179 7.51079 13.8826C10.9674 13.7415 13.9152 10.7433 13.9503 7.32183C13.9679 3.6358 11.0727 0.584678 7.37042 0.478859C5.17712 0.408313 2.98382 0.478859 0.790519 0.443586C0.158848 0.42595 0.000930608 0.637588 0.000930608 1.25487C0.0360234 4.28835 0.0184771 7.3571 0.0184771 10.4082C0.0184771 13.4593 0.0360234 16.5105 0.000930608 19.5616ZM4.0366 6.828C4.35244 6.052 3.3172 4.65871 4.58054 4.46471C7.80908 3.97089 9.63391 4.90562 9.96729 6.828C10.1954 8.09783 9.1777 9.49112 7.80908 9.82621C6.7212 10.0908 5.59823 9.91439 4.49281 9.94967C4.0717 9.9673 4.0366 9.68512 4.0366 9.36766C4.0366 8.62693 4.0366 7.90383 4.0366 7.1631C4.0366 7.05728 4.00151 6.93382 4.0366 6.828ZM53.342 19.6321C53.342 20.2494 53.5175 20.4434 54.1316 20.4081C54.9387 20.3552 55.7634 20.3552 56.5881 20.4081C57.1847 20.4434 57.4128 20.267 57.3952 19.6321C57.3601 17.9919 57.4128 16.3517 57.3601 14.6939C57.3426 14.0237 57.5707 13.8297 58.2024 13.865C59.0797 13.9179 59.957 13.9002 60.8343 13.865C64.2208 13.7239 67.1861 10.7786 67.2738 7.48056C67.3791 3.65343 64.4664 0.549405 60.6238 0.443586C58.4655 0.390676 56.3073 0.443586 54.1316 0.408313C53.5175 0.390677 53.3245 0.584678 53.342 1.20196C53.3771 4.25307 53.3595 7.30419 53.3595 10.3553C53.342 13.477 53.3595 16.5634 53.342 19.6321ZM57.3601 4.95853C57.3601 4.67635 57.3777 4.39417 57.7461 4.4118C58.8516 4.44707 59.9745 4.27071 61.0624 4.53526C62.3959 4.85272 63.3259 5.98145 63.3259 7.21601C63.3084 8.4682 62.3082 9.59694 60.9396 9.87912C59.9219 10.0908 58.9042 9.93203 57.8865 9.98494C57.4303 10.0026 57.3601 9.75567 57.3601 9.3853C57.3777 8.64457 57.3601 7.92147 57.3601 7.18073C57.3601 6.42236 57.3777 5.68163 57.3601 4.95853Z" fill="#5888EC"/>
<path d="M41.1648 45.0992C35.4447 45.0639 30.8651 40.3902 30.9001 34.6231C30.9352 28.9618 35.7079 24.2704 41.3052 24.341C47.0077 24.4115 51.6575 29.1734 51.5874 34.8524C51.5347 40.5313 46.8498 45.1344 41.1648 45.0992ZM41.1999 41.0251C44.6565 41.0251 47.5692 38.1504 47.5341 34.7289C47.499 31.2721 44.6214 28.3974 41.2174 28.3974C37.7959 28.3974 34.9358 31.2898 34.9534 34.7642C34.9534 38.1857 37.7783 41.0251 41.1999 41.0251ZM101.244 34.7642C101.244 31.6778 101.244 28.5914 101.244 25.5226C101.244 25.2228 101.051 24.7643 101.665 24.7819C104.174 24.8348 106.701 24.5703 109.192 24.923C115.421 25.8401 117.807 30.6901 117.281 35.9105C116.737 41.325 113.245 44.4995 107.806 44.6935C105.858 44.7641 103.893 44.6935 101.928 44.7288C101.349 44.7464 101.209 44.5701 101.209 43.9881C101.261 40.937 101.244 37.8506 101.244 34.7642ZM105.227 34.6584C105.227 36.422 105.262 38.1857 105.209 39.9493C105.192 40.5842 105.402 40.7782 105.999 40.7077C106.63 40.6548 107.28 40.69 107.929 40.6548C110.333 40.5313 112.403 38.9793 113 36.8629C113.824 33.9705 113.052 31.2721 110.964 29.826C109.333 28.6972 107.455 28.6972 105.578 28.7149C105.104 28.7149 105.227 29.1029 105.227 29.3674C105.227 31.1487 105.227 32.8947 105.227 34.6584ZM30.637 44.7288C29.1104 44.7288 27.7769 44.6935 26.4258 44.7464C25.917 44.7641 25.6538 44.5524 25.373 44.1644C23.6359 41.5366 21.8638 38.9088 20.0916 36.2809C19.9336 36.0516 19.8459 35.7518 19.4599 35.5755C19.4599 35.9105 19.4599 36.1927 19.4599 36.4749C19.4599 38.9969 19.4423 41.519 19.4774 44.041C19.4774 44.5524 19.3897 44.7817 18.8107 44.7464C17.9158 44.6935 17.0034 44.7112 16.091 44.7464C15.6172 44.7641 15.4418 44.6583 15.4418 44.1292C15.4593 37.8858 15.4593 31.6249 15.4418 25.3815C15.4418 24.9406 15.547 24.7643 16.0208 24.7643C18.2316 24.7995 20.4776 24.6937 22.6709 24.8525C25.18 25.0465 27.075 26.3868 28.1103 28.7149C29.1104 30.9547 28.8121 33.124 27.3382 35.0993C26.9171 35.6636 26.3907 36.1927 25.7415 36.4396C24.9344 36.7571 25.18 37.0746 25.5309 37.5507C27.0575 39.6671 28.5489 41.8011 30.0579 43.9175C30.2334 44.1468 30.3913 44.3761 30.637 44.7288ZM21.004 33.7765C21.3023 33.7765 21.583 33.7765 21.8813 33.7765C23.4429 33.7236 24.5834 32.6478 24.5834 31.2369C24.5659 29.8789 23.4429 28.803 21.9339 28.7325C21.3198 28.7149 20.7057 28.7678 20.0916 28.7149C19.5652 28.6796 19.4423 28.8912 19.4599 29.3674C19.495 30.3021 19.4599 31.2369 19.4599 32.1892C19.4599 33.7765 19.4599 33.7765 21.004 33.7765ZM87.0311 44.0233C87.0311 44.4113 86.9609 44.7464 87.575 44.7464C91.2071 44.7112 94.8217 44.7288 98.4538 44.7464C98.9626 44.7464 99.0153 44.5348 99.0153 44.1292C98.9977 43.2473 98.9627 42.3655 99.0153 41.4837C99.0504 40.8311 98.8047 40.7077 98.2257 40.7253C96.0675 40.7606 93.8917 40.7253 91.7335 40.743C91.2247 40.743 90.9966 40.6371 91.0317 40.0728C91.0843 39.1733 91.0843 38.2562 91.0317 37.3391C90.9966 36.7395 91.2071 36.5984 91.7686 36.616C93.5759 36.6513 95.4007 36.616 97.208 36.6336C97.6993 36.6336 97.9625 36.5631 97.9274 35.9811C97.8748 35.0816 97.8923 34.1645 97.9274 33.2474C97.945 32.7536 97.787 32.5772 97.2782 32.5949C96.2254 32.6302 95.1726 32.6125 94.1198 32.5949C93.1372 32.5772 91.8213 33.0182 91.2422 32.4362C90.6281 31.8189 91.1194 30.4961 91.0317 29.4732C90.979 28.8736 91.172 28.6796 91.7862 28.6796C93.9795 28.7148 96.1728 28.6796 98.3661 28.6972C98.8398 28.6972 99.0328 28.5914 99.0153 28.0799C98.9802 27.2334 98.9627 26.3692 99.0153 25.5226C99.0504 24.8877 98.8398 24.7466 98.2257 24.7466C94.7515 24.7819 91.2773 24.7819 87.7856 24.7466C87.1715 24.7466 86.996 24.8877 87.0135 25.5226C87.0486 28.5738 87.0311 31.6249 87.0311 34.676C87.0311 37.7977 87.0311 40.9193 87.0311 44.0233ZM0.0184778 34.6936C0.0184778 31.6601 0.0360242 28.6443 0.000931374 25.6108C-0.016615 24.8877 0.211488 24.7466 0.878252 24.7643C3.07155 24.8172 5.26485 24.729 7.45815 24.8172C11.371 24.9406 14.3539 28.4679 13.9152 32.3656C13.5818 35.4167 10.6691 38.0975 7.51079 38.2209C6.58083 38.2562 5.63333 38.2562 4.70337 38.2209C4.15943 38.2033 4.00151 38.3973 4.01906 38.9264C4.05415 40.5666 3.98397 42.2244 4.05415 43.8646C4.08924 44.623 3.82605 44.817 3.12419 44.7641C2.3697 44.6935 1.59765 44.7112 0.843159 44.7641C0.193942 44.817 0.00093144 44.623 0.0184778 43.9528C0.0360243 40.8488 0.0184778 37.7624 0.0184778 34.6936ZM4.01906 31.5014C4.01906 32.2069 4.0366 32.9123 4.01906 33.6178C4.00151 34.0764 4.10679 34.3233 4.63318 34.3056C5.42277 34.2704 6.21236 34.3233 7.00195 34.288C8.72149 34.1998 10.0024 32.9829 10.0024 31.4661C9.98484 30.0023 8.70395 28.8207 7.00195 28.7501C6.21236 28.7149 5.42277 28.7678 4.63318 28.7325C4.08924 28.6972 4.00151 28.9441 4.01906 29.4027C4.0366 30.0905 4.01906 30.796 4.01906 31.5014ZM53.342 43.9881C53.342 44.623 53.5175 44.7994 54.1316 44.7464C54.9212 44.6935 55.7108 44.6935 56.5004 44.7464C57.1671 44.7994 57.4128 44.6054 57.3952 43.8823C57.3426 41.7482 57.3952 39.5966 57.3601 37.4626C57.3426 36.8806 57.5356 36.7218 58.0971 36.7395C59.9044 36.7747 61.7116 36.7395 63.5365 36.7571C64.0453 36.7571 64.2734 36.6336 64.2559 36.0693C64.2208 35.1875 64.2032 34.3056 64.2559 33.4238C64.291 32.8065 64.0453 32.7007 63.5014 32.7183C61.6941 32.7536 59.8868 32.7183 58.062 32.736C57.5531 32.736 57.325 32.6302 57.3601 32.0658C57.4128 31.2192 57.4128 30.355 57.3601 29.5085C57.325 28.8736 57.483 28.6443 58.1673 28.6619C60.3255 28.7149 62.4837 28.6619 64.6594 28.6972C65.1683 28.6972 65.3964 28.609 65.3613 28.027C65.3087 27.1452 65.3087 26.2634 65.3613 25.3815C65.3964 24.7819 65.1858 24.6408 64.6243 24.6585C61.1502 24.6761 57.676 24.6937 54.2018 24.6585C53.5526 24.6585 53.3596 24.8172 53.3771 25.4874C53.4122 28.5738 53.3946 31.6425 53.3946 34.7289C53.342 37.8329 53.3595 40.9193 53.342 43.9881ZM73.5204 44.0233C73.5204 44.4113 73.4677 44.7464 74.0643 44.7464C77.6964 44.7288 81.311 44.7288 84.9431 44.7464C85.3642 44.7464 85.5046 44.623 85.487 44.1997C85.4519 43.3532 85.4344 42.489 85.487 41.6424C85.5397 40.9193 85.3466 40.69 84.5921 40.7077C82.5392 40.7606 80.5038 40.69 78.4509 40.743C77.6789 40.7606 77.4859 40.549 77.4859 39.7729C77.5209 35.0464 77.5034 30.3198 77.521 25.5932C77.521 25.0641 77.521 24.6937 76.8016 24.7466C75.9593 24.8172 75.0995 24.7995 74.2573 24.7466C73.6432 24.7114 73.4853 24.9054 73.4853 25.5226C73.5204 28.609 73.5028 31.6954 73.5028 34.7818C73.5204 37.8506 73.5204 40.937 73.5204 44.0233ZM66.8527 44.0233C66.8527 44.6054 67.0282 44.7641 67.5897 44.7464C68.4846 44.6935 69.397 44.7112 70.3094 44.7464C70.7129 44.7641 70.8884 44.6583 70.8884 44.2173C70.8709 37.9387 70.8709 31.6601 70.8884 25.3639C70.8884 24.8877 70.7129 24.7643 70.2743 24.7643C69.397 24.7819 68.5196 24.8172 67.6423 24.7643C67.0282 24.729 66.8527 24.9054 66.8703 25.5403C66.9054 28.6267 66.8878 31.7131 66.8878 34.7818C66.8527 37.8506 66.8703 40.937 66.8527 44.0233Z" fill="#1E418D"/>
</svg>
