<svg width="57" height="40" viewBox="0 0 57 40" fill="none" xmlns="http://www.w3.org/2000/svg">
<path d="M50.1217 19.8166C47.6804 18.7584 46.9786 16.6267 46.4293 14.4183C46.0326 12.8693 46.0936 11.2744 46.0784 9.69474C46.0784 8.62121 45.9563 7.56302 45.5139 6.55084C45.1477 5.73803 44.5984 5.24727 43.6371 5.30862C42.859 5.35463 42.0656 5.26261 41.2722 5.27795C40.8755 5.27795 40.7534 5.15526 40.7534 4.74118C40.7687 3.33026 40.7687 1.93468 40.7534 0.523755C40.7534 0.10968 40.8908 0.00232705 41.2875 0.00232705C42.8895 0.0176631 44.4916 -0.028345 46.0937 0.0329994C49.4656 0.155688 51.9831 2.83951 52.0594 6.35147C52.0899 7.88508 52.0442 9.41869 52.0899 10.9523C52.1357 12.9153 52.6697 14.725 53.9209 16.2739C54.5464 17.0561 55.3093 17.6388 56.3316 17.7462C56.7588 17.7922 56.8046 18.0069 56.8046 18.3596C56.7893 19.3258 56.8046 20.3073 56.8046 21.2735C56.8046 21.5342 56.8351 21.7796 56.4689 21.8409C54.4396 22.1477 53.5089 23.6506 52.7918 25.3376C52.2425 26.6105 52.0747 27.9907 52.0899 29.371C52.1052 30.7205 52.1052 32.0701 52.0899 33.435C52.0747 37.1004 49.3588 40.1369 45.5444 39.9682C44.1559 39.9069 42.7522 39.9375 41.3485 39.9682C40.9213 39.9682 40.7687 39.8608 40.784 39.4161C40.8145 38.0359 40.8145 36.6556 40.784 35.2754C40.7687 34.8306 40.9213 34.7079 41.3485 34.7233C42.1571 34.7539 42.9811 34.7079 43.7897 34.7386C44.5831 34.7693 45.0866 34.4165 45.4376 33.7417C46.0021 32.6375 46.1242 31.4567 46.1242 30.2451C46.1242 28.1287 46.0936 25.997 46.7955 23.9573C47.36 22.209 48.1229 20.5527 50.1217 19.8166ZM9.96331 15.7832C10.7109 13.6821 10.7109 11.4737 10.7109 9.28067C10.7109 8.25315 10.894 7.2563 11.367 6.3208C11.7179 5.64601 12.2215 5.29328 13.0149 5.32395C13.793 5.35463 14.5864 5.26261 15.3798 5.29328C15.9291 5.30862 16.0511 5.09391 16.0359 4.57248C16.0054 3.26892 16.0054 1.96535 16.0359 0.661779C16.0511 0.155688 15.8986 0.00232705 15.4103 0.00232705C13.9608 0.0329992 12.5114 0.00232711 11.0619 0.0176632C7.49155 0.0329993 4.80619 2.68614 4.74515 6.27479C4.7299 7.57836 4.76042 8.88193 4.7299 10.1855C4.69939 11.5351 4.57732 12.8847 4.0433 14.1575C3.32619 15.9059 2.39546 17.4548 0.289892 17.7769C-5.58392e-06 17.8229 0 18.0069 0 18.2216C0 19.2645 0.0152577 20.3227 0 21.3655C0 21.7336 0.137316 21.8409 0.472986 21.8869C1.43422 22.0096 2.1666 22.5464 2.76165 23.2672C3.87546 24.6014 4.40949 26.1657 4.60784 27.8834C4.83671 29.9231 4.65361 31.9628 4.7299 34.0025C4.83671 37.085 7.35423 39.7995 10.3295 39.9529C12.0536 40.0449 13.7777 39.9682 15.5171 39.9989C15.9443 39.9989 16.0359 39.8302 16.0206 39.4468C16.0054 38.7106 16.0206 37.9592 16.0206 37.223C16.0054 36.4409 16.28 35.3827 15.8833 34.938C15.4256 34.4165 14.3575 34.7846 13.5489 34.7693C11.8705 34.7386 11.4586 34.4319 10.9703 32.7909C10.6041 31.564 10.6957 30.3218 10.6804 29.0642C10.6652 27.3006 10.5431 25.5369 9.94805 23.8653C9.32248 22.1016 8.52907 20.4607 6.54557 19.8166C8.52907 19.1725 9.353 17.5468 9.96331 15.7832Z" fill="white"/>
<path d="M41.5929 26.3347C41.5929 28.3437 41.7302 30.368 41.5776 32.3771C41.5166 33.1746 41.1504 33.3893 40.4943 33.4046C38.465 33.4199 36.4358 33.4353 34.3912 33.4353C33.5521 33.4353 32.7129 33.4046 31.8737 33.4046C31.1413 33.4046 30.8209 33.0519 30.8209 32.3311C30.8209 29.908 30.8209 27.4849 30.7904 25.0618C30.7599 22.4546 30.943 22.7307 28.4255 22.7153C26.2436 22.7 26.2589 22.7153 26.2436 24.8931C26.2131 27.3622 26.3351 29.8466 26.1826 32.3157C26.1368 33.0825 25.8011 33.4199 25.0535 33.4199C22.2308 33.4199 19.4081 33.4199 16.5854 33.4199C15.792 33.4199 15.4259 33.1285 15.3953 32.2391C15.2885 28.4664 15.258 24.6937 15.4259 20.921C15.4564 20.2769 15.8683 19.8321 16.2803 19.4334C17.8213 17.9151 19.3776 16.4122 20.9339 14.9093C22.8106 13.1149 24.6721 11.3206 26.5793 9.54162C28.5323 7.71663 28.456 7.68596 30.409 9.52629C33.7962 12.7315 37.1224 15.9828 40.4943 19.1727C41.2725 19.9088 41.6539 20.7216 41.6082 21.7952C41.5624 23.3288 41.5929 24.8317 41.5929 26.3347ZM20.8424 22.6693C20.3388 22.6693 19.8353 22.6693 19.3166 22.6693C18.691 22.654 18.3706 22.9454 18.3706 23.5895C18.3706 24.5557 18.3706 25.5218 18.3706 26.488C18.3706 27.0861 18.6758 27.3775 19.2556 27.3775C20.2626 27.3775 21.2848 27.3775 22.2918 27.3775C22.8564 27.3775 23.2073 27.1168 23.2683 26.534C23.3751 25.5525 23.3599 24.5557 23.2836 23.5588C23.2378 22.9607 22.8869 22.654 22.2766 22.654C21.8036 22.6847 21.3153 22.6693 20.8424 22.6693ZM36.1764 27.2855C36.6799 27.2855 37.1987 27.2702 37.7022 27.2855C38.282 27.3162 38.5413 27.0708 38.5261 26.4727C38.4956 25.5065 38.4956 24.5403 38.5261 23.5742C38.5413 22.976 38.2667 22.7613 37.7022 22.7613C36.6799 22.7767 35.6729 22.7767 34.6506 22.7613C34.0861 22.746 33.7809 23.0221 33.7657 23.5742C33.7504 24.5403 33.7351 25.5065 33.7657 26.4727C33.7809 27.0248 34.0861 27.3008 34.6506 27.2702C35.1694 27.2548 35.6729 27.2855 36.1764 27.2855ZM38.9533 5.41621C38.9533 4.89479 38.7397 4.58806 38.2057 4.57273C37.4428 4.55739 36.6799 4.57273 35.917 4.57273C35.4898 4.57273 35.2609 4.78743 35.2762 5.23218C35.2914 5.8763 35.2762 6.50508 35.2762 7.14919C35.2762 7.39457 35.3525 7.71663 35.0778 7.83932C34.7727 7.99268 34.5743 7.68596 34.376 7.50192C32.9417 6.13701 31.5228 4.74143 30.0733 3.39185C28.1813 1.6282 28.5933 1.82757 26.976 3.34584C21.6815 8.33007 16.4329 13.391 11.1842 18.4366C10.8943 18.7126 10.4671 19.0193 10.5739 19.4334C10.757 20.1849 11.4588 20.5223 12.0539 20.875C12.5421 21.1817 12.8626 20.737 13.1525 20.4609C14.9071 18.8046 16.6617 17.133 18.4164 15.4614C21.5137 12.5168 24.611 9.5723 27.6931 6.59709C28.2424 6.07567 28.6543 5.99899 29.2341 6.55108C31.9042 9.12755 34.6201 11.6733 37.3055 14.2345C39.5026 16.3202 41.6844 18.4212 43.8816 20.5069C44.1257 20.737 44.4003 21.059 44.7207 20.9363C45.3921 20.6756 46.0329 20.2462 46.3228 19.6021C46.5669 19.0653 46.0329 18.6359 45.6515 18.2679C43.6374 16.3202 41.6234 14.3878 39.5789 12.4555C39.1211 12.0261 38.9075 11.5353 38.938 10.9065C38.9838 10.0477 38.9533 9.17356 38.9533 8.2994C38.9533 7.34856 38.938 6.38239 38.9533 5.41621Z" fill="white"/>
</svg>
