<svg width="50" height="36" viewBox="0 0 50 36" fill="none" xmlns="http://www.w3.org/2000/svg">
<mask id="path-1-inside-1_17_579" fill="white">
<path d="M5.86944 21.2011H5.3353V17.9999H5.86944C6.07974 17.9996 6.28804 18.0408 6.48238 18.1212C6.67673 18.2016 6.85329 18.3195 7.00194 18.4683C7.15059 18.6171 7.26841 18.7937 7.34863 18.9881C7.42885 19.1825 7.4699 19.3908 7.46941 19.6011C7.46974 19.8115 7.42853 20.0198 7.34816 20.2141C7.26779 20.4084 7.14984 20.585 7.00108 20.7337C6.85231 20.8823 6.67566 21.0001 6.48126 21.0803C6.28685 21.1606 6.07852 21.2016 5.86822 21.2011H5.86944ZM12.8047 17.9999H13.3389C13.9242 17.9999 14.4047 18.4804 14.4047 19.067V23.3352C14.4037 23.6177 14.2912 23.8884 14.0915 24.0883C13.8919 24.2881 13.6213 24.401 13.3389 24.4023H12.8047V17.9999ZM14.9388 0.927002V9.46348C14.9388 10.6439 15.8925 11.5976 17.0729 11.5976H25.6094V30.8047C25.6094 33.1583 23.6948 35.0729 21.3412 35.0729H4.26824C1.91095 35.0729 0 33.1583 0 30.8047V5.19524C0 4.06323 0.449688 2.97759 1.25014 2.17714C2.05059 1.37669 3.13623 0.927002 4.26824 0.927002L14.9388 0.927002ZM4.26824 15.8658C3.98533 15.8662 3.71411 15.9787 3.51407 16.1787C3.31403 16.3788 3.2015 16.65 3.20118 16.9329V25.4694C3.21429 25.7435 3.33244 26.0021 3.53111 26.1916C3.72979 26.381 3.99375 26.4866 4.26824 26.4866C4.54273 26.4866 4.80669 26.381 5.00536 26.1916C5.20404 26.0021 5.32218 25.7435 5.3353 25.4694V23.3352H5.86944C6.85979 23.3346 7.80938 22.9408 8.50956 22.2404C9.20973 21.54 9.60321 20.5903 9.60353 19.5999C9.60289 18.6096 9.2091 17.66 8.5087 16.9598C7.80829 16.2596 6.85857 15.8662 5.86822 15.8658H4.26824ZM10.6706 25.4694C10.6706 26.0559 11.1511 26.5364 11.7377 26.5364H13.3389C14.1875 26.5358 15.0013 26.1983 15.6013 25.598C16.2013 24.9978 16.5385 24.1839 16.5388 23.3352V19.067C16.5385 18.2183 16.2013 17.4045 15.6013 16.8042C15.0013 16.204 14.1875 15.8665 13.3389 15.8658H11.7364C11.4537 15.8668 11.1829 15.9795 10.983 16.1794C10.7831 16.3793 10.6703 16.6502 10.6694 16.9329V25.4694H10.6706ZM19.2071 15.8658C18.9244 15.8668 18.6535 15.9795 18.4536 16.1794C18.2537 16.3793 18.141 16.6502 18.14 16.9329V25.4694C18.14 26.0559 18.6205 26.5364 19.2071 26.5364C19.4898 26.5355 19.7606 26.4227 19.9605 26.2228C20.1604 26.0229 20.2732 25.7521 20.2741 25.4694V22.2682H22.4082C22.6909 22.2672 22.9618 22.1545 23.1617 21.9546C23.3616 21.7547 23.4743 21.4838 23.4753 21.2011C23.4743 20.9184 23.3616 20.6476 23.1617 20.4477C22.9618 20.2478 22.6909 20.135 22.4082 20.1341H20.2741V17.9999H22.4082C22.6909 17.999 22.9618 17.8863 23.1617 17.6863C23.3616 17.4864 23.4743 17.2156 23.4753 16.9329C23.4743 16.6502 23.3616 16.3793 23.1617 16.1794C22.9618 15.9795 22.6909 15.8668 22.4082 15.8658H19.2071ZM17.0729 0.927002L25.6094 9.46348H17.0729V0.927002ZM49.5518 19.9011L41.9299 27.3206C41.6425 27.6021 41.2555 27.7586 40.8531 27.7559C40.4629 27.7559 40.0726 27.6108 39.7751 27.3218L32.1532 19.9024C32.0122 19.7665 31.9 19.6036 31.8234 19.4234C31.7467 19.2432 31.7072 19.0494 31.7072 18.8536C31.7072 18.6578 31.7467 18.464 31.8234 18.2838C31.9 18.1036 32.0122 17.9407 32.1532 17.8048C32.4428 17.5258 32.8292 17.37 33.2313 17.37C33.6334 17.37 34.0198 17.5258 34.3093 17.8048L39.3288 22.6926V8.46715C39.3288 7.64643 40.0117 7.02448 40.8104 7.02448C41.6092 7.02448 42.3775 7.64643 42.3775 8.46715V22.6926L47.3982 17.8048C47.6877 17.5258 48.0741 17.37 48.4762 17.37C48.8783 17.37 49.2647 17.5258 49.5542 17.8048C49.6954 17.9405 49.8076 18.1034 49.8843 18.2836C49.9609 18.4638 50.0002 18.6577 50 18.8535C49.9998 19.0493 49.9599 19.2431 49.8829 19.4231C49.8059 19.6031 49.6933 19.7658 49.5518 19.9011Z"/>
</mask>
<path d="M5.86944 21.2011H5.3353V17.9999H5.86944C6.07974 17.9996 6.28804 18.0408 6.48238 18.1212C6.67673 18.2016 6.85329 18.3195 7.00194 18.4683C7.15059 18.6171 7.26841 18.7937 7.34863 18.9881C7.42885 19.1825 7.4699 19.3908 7.46941 19.6011C7.46974 19.8115 7.42853 20.0198 7.34816 20.2141C7.26779 20.4084 7.14984 20.585 7.00108 20.7337C6.85231 20.8823 6.67566 21.0001 6.48126 21.0803C6.28685 21.1606 6.07852 21.2016 5.86822 21.2011H5.86944ZM12.8047 17.9999H13.3389C13.9242 17.9999 14.4047 18.4804 14.4047 19.067V23.3352C14.4037 23.6177 14.2912 23.8884 14.0915 24.0883C13.8919 24.2881 13.6213 24.401 13.3389 24.4023H12.8047V17.9999ZM14.9388 0.927002V9.46348C14.9388 10.6439 15.8925 11.5976 17.0729 11.5976H25.6094V30.8047C25.6094 33.1583 23.6948 35.0729 21.3412 35.0729H4.26824C1.91095 35.0729 0 33.1583 0 30.8047V5.19524C0 4.06323 0.449688 2.97759 1.25014 2.17714C2.05059 1.37669 3.13623 0.927002 4.26824 0.927002L14.9388 0.927002ZM4.26824 15.8658C3.98533 15.8662 3.71411 15.9787 3.51407 16.1787C3.31403 16.3788 3.2015 16.65 3.20118 16.9329V25.4694C3.21429 25.7435 3.33244 26.0021 3.53111 26.1916C3.72979 26.381 3.99375 26.4866 4.26824 26.4866C4.54273 26.4866 4.80669 26.381 5.00536 26.1916C5.20404 26.0021 5.32218 25.7435 5.3353 25.4694V23.3352H5.86944C6.85979 23.3346 7.80938 22.9408 8.50956 22.2404C9.20973 21.54 9.60321 20.5903 9.60353 19.5999C9.60289 18.6096 9.2091 17.66 8.5087 16.9598C7.80829 16.2596 6.85857 15.8662 5.86822 15.8658H4.26824ZM10.6706 25.4694C10.6706 26.0559 11.1511 26.5364 11.7377 26.5364H13.3389C14.1875 26.5358 15.0013 26.1983 15.6013 25.598C16.2013 24.9978 16.5385 24.1839 16.5388 23.3352V19.067C16.5385 18.2183 16.2013 17.4045 15.6013 16.8042C15.0013 16.204 14.1875 15.8665 13.3389 15.8658H11.7364C11.4537 15.8668 11.1829 15.9795 10.983 16.1794C10.7831 16.3793 10.6703 16.6502 10.6694 16.9329V25.4694H10.6706ZM19.2071 15.8658C18.9244 15.8668 18.6535 15.9795 18.4536 16.1794C18.2537 16.3793 18.141 16.6502 18.14 16.9329V25.4694C18.14 26.0559 18.6205 26.5364 19.2071 26.5364C19.4898 26.5355 19.7606 26.4227 19.9605 26.2228C20.1604 26.0229 20.2732 25.7521 20.2741 25.4694V22.2682H22.4082C22.6909 22.2672 22.9618 22.1545 23.1617 21.9546C23.3616 21.7547 23.4743 21.4838 23.4753 21.2011C23.4743 20.9184 23.3616 20.6476 23.1617 20.4477C22.9618 20.2478 22.6909 20.135 22.4082 20.1341H20.2741V17.9999H22.4082C22.6909 17.999 22.9618 17.8863 23.1617 17.6863C23.3616 17.4864 23.4743 17.2156 23.4753 16.9329C23.4743 16.6502 23.3616 16.3793 23.1617 16.1794C22.9618 15.9795 22.6909 15.8668 22.4082 15.8658H19.2071ZM17.0729 0.927002L25.6094 9.46348H17.0729V0.927002ZM49.5518 19.9011L41.9299 27.3206C41.6425 27.6021 41.2555 27.7586 40.8531 27.7559C40.4629 27.7559 40.0726 27.6108 39.7751 27.3218L32.1532 19.9024C32.0122 19.7665 31.9 19.6036 31.8234 19.4234C31.7467 19.2432 31.7072 19.0494 31.7072 18.8536C31.7072 18.6578 31.7467 18.464 31.8234 18.2838C31.9 18.1036 32.0122 17.9407 32.1532 17.8048C32.4428 17.5258 32.8292 17.37 33.2313 17.37C33.6334 17.37 34.0198 17.5258 34.3093 17.8048L39.3288 22.6926V8.46715C39.3288 7.64643 40.0117 7.02448 40.8104 7.02448C41.6092 7.02448 42.3775 7.64643 42.3775 8.46715V22.6926L47.3982 17.8048C47.6877 17.5258 48.0741 17.37 48.4762 17.37C48.8783 17.37 49.2647 17.5258 49.5542 17.8048C49.6954 17.9405 49.8076 18.1034 49.8843 18.2836C49.9609 18.4638 50.0002 18.6577 50 18.8535C49.9998 19.0493 49.9599 19.2431 49.8829 19.4231C49.8059 19.6031 49.6933 19.7658 49.5518 19.9011Z" fill="#FCBA6A" stroke="#FCBA6A" stroke-width="2.43899" mask="url(#path-1-inside-1_17_579)"/>
</svg>
