<svg width="54" height="43" viewBox="0 0 54 43" fill="none" xmlns="http://www.w3.org/2000/svg">
<path fill-rule="evenodd" clip-rule="evenodd" d="M2 9.78414L12.2273 16.6023L2 9.78414ZM9.95455 1.82959L15.0682 10.3523L9.95455 1.82959Z" fill="#D8D8D8"/>
<path d="M2 9.78414L12.2273 16.6023M9.95455 1.82959L15.0682 10.3523" stroke="#FCBA6A" stroke-width="2.27273" stroke-linecap="round"/>
<path fill-rule="evenodd" clip-rule="evenodd" d="M52.0001 9.78414L41.7728 16.6023L52.0001 9.78414ZM44.0455 1.82959L38.9319 10.3523L44.0455 1.82959Z" fill="#D8D8D8"/>
<path d="M52.0001 9.78414L41.7728 16.6023M44.0455 1.82959L38.9319 10.3523" stroke="#FCBA6A" stroke-width="2.27273" stroke-linecap="round"/>
<path d="M26.8387 16.0449L26.3825 16.1366C22.3792 16.9409 19.3717 20.4416 19.3717 24.6284V25.7125V25.7131C19.3686 28.5727 18.309 31.3303 16.3963 33.4562L16.3957 33.4568L15.9639 33.9352L15.9633 33.9359C15.7982 34.1183 15.69 34.3451 15.6521 34.5883C15.6143 34.8314 15.6483 35.0802 15.7501 35.3042C15.9608 35.7645 16.423 36.0625 16.9364 36.0625H39.3376C39.8522 36.0625 40.3154 35.7635 40.5234 35.3054L26.8387 16.0449ZM26.8387 16.0449V15.5795M26.8387 16.0449V15.5795M26.8387 15.5795V14.4716C26.8387 13.7715 27.413 13.1932 28.1376 13.1932C28.8608 13.1932 29.4353 13.7713 29.4353 14.4716V15.5795V16.046L29.8929 16.1369C33.9444 16.941 36.9035 20.4387 36.9035 24.6284V25.7125V25.7129C36.9053 28.5729 37.9652 31.331 39.879 33.4563L39.8794 33.4568M26.8387 15.5795L39.8794 33.4568M39.8794 33.4568L40.3108 33.9347C40.3109 33.9349 40.3111 33.935 40.3112 33.9352C40.4758 34.1182 40.5836 34.3451 40.6213 34.5884C40.6591 34.8317 40.6251 35.0807 40.5236 35.305L39.8794 33.4568ZM28.1379 41.6023H28.1364C27.3397 41.6023 26.4822 41.2704 25.8945 40.6875L25.8935 40.6865C25.4452 40.2441 25.1455 39.6493 25.0278 39.0455H31.245C31.127 39.649 30.8271 40.2437 30.3795 40.6864C29.7822 41.2752 28.9766 41.6044 28.1379 41.6023Z" fill="#FCBA6A" stroke="#FCBA6A" stroke-width="1.13636"/>
</svg>
