<svg width="50" height="44" viewBox="0 0 50 44" fill="none" xmlns="http://www.w3.org/2000/svg">
<path d="M38.9875 35.9038V32.3324H42.5589C43.8372 32.3324 44.9411 31.3806 44.9411 29.952C44.9411 28.7567 43.9028 27.5716 42.5589 27.5716H38.9875V24.0002C38.9875 22.8045 37.9506 21.6181 36.6071 21.6181C35.2637 21.6181 34.2268 22.8045 34.2268 24.0002V27.5716H30.6554C29.3115 27.5716 28.2732 28.7567 28.2732 29.952C28.2732 31.3806 29.377 32.3324 30.6554 32.3324H34.2268V35.9038C34.2268 37.3328 35.3292 38.2859 36.6071 38.2859C37.8851 38.2859 38.9875 37.3328 38.9875 35.9038ZM24.1071 30.0359C24.1071 23.1362 29.7074 17.5359 36.6071 17.5359C43.5069 17.5359 49.1071 23.1362 49.1071 30.0359C49.1071 36.9357 43.5069 42.5359 36.6071 42.5359C29.7074 42.5359 24.1071 36.9357 24.1071 30.0359ZM2.23214 31.8216H6.69643C7.44082 31.8216 8.03571 32.4165 8.03571 33.1609V37.6252C8.03571 38.3696 7.44082 38.9645 6.69643 38.9645H2.23214C1.49171 38.9645 0.892857 38.3682 0.892857 37.6252V33.1609C0.892857 32.4179 1.49171 31.8216 2.23214 31.8216Z" fill="#FCBA6A" stroke="#FCBA6A" stroke-width="1.78571"/>
<path d="M26.9699 17.5358C25.5437 18.5433 24.3101 19.7484 23.3287 21.1072H15.6768C14.2638 21.1072 13.3929 20.1738 13.3929 19.3215C13.3929 18.4693 14.2638 17.5358 15.6768 17.5358H26.9699ZM41.7214 6.82153H15.4214C14.2238 6.82153 13.3929 5.9534 13.3929 5.03582C13.3929 4.12107 14.2247 3.2501 15.4214 3.2501H41.7214C42.9182 3.2501 43.75 4.12107 43.75 5.03582C43.75 5.9534 42.919 6.82153 41.7214 6.82153ZM2.23214 1.46439H6.69643C7.43942 1.46439 8.03571 2.06325 8.03571 2.80368V7.26796C8.03571 8.01235 7.44082 8.60725 6.69643 8.60725H2.23214C1.49171 8.60725 0.892857 8.01095 0.892857 7.26796V2.80368C0.892857 2.06464 1.49311 1.46439 2.23214 1.46439ZM2.23214 15.7501H6.69643C7.44082 15.7501 8.03571 16.345 8.03571 17.0894V21.5537C8.03571 22.2981 7.44082 22.893 6.69643 22.893H2.23214C1.49171 22.893 0.892857 22.2967 0.892857 21.5537V17.0894C0.892857 16.3464 1.49171 15.7501 2.23214 15.7501ZM13.3929 35.393C13.3929 34.4998 14.2379 33.6072 15.5125 33.6072H20.5334C20.7489 34.8474 21.1383 36.0496 21.6888 37.1787H15.5125C14.2379 37.1787 13.3929 36.2861 13.3929 35.393Z" fill="#FCBA6A" stroke="#FCBA6A" stroke-width="1.78571"/>
</svg>
