<svg width="21" height="16" viewBox="0 0 21 16" fill="none" xmlns="http://www.w3.org/2000/svg">
<path d="M2.00784 0C0.897255 0 0 0.89375 0 2V2.8125L9.73177 9.99375C9.81961 10.0563 9.92628 10.0938 10.0392 10.0938C10.1522 10.0938 10.2588 10.0563 10.3467 9.99375L20.0784 2.8125V2C20.0784 0.89375 19.1812 0 18.0706 0H2.00784ZM20.0784 5.3L11.5451 11.6C11.1122 11.9188 10.5851 12.0938 10.0392 12.0938C9.49333 12.0938 8.97255 11.9188 8.53333 11.6L0 5.3V14C0 15.1062 0.897255 16 2.00784 16H18.0706C19.1812 16 20.0784 15.1062 20.0784 14V5.3Z" fill="#FCBA6A"/>
</svg>
