<svg width="16" height="20" viewBox="0 0 16 20" fill="none" xmlns="http://www.w3.org/2000/svg">
<path d="M5.14286 6V7.71429H10.8571V6C10.8571 4.42143 9.57857 3.14286 8 3.14286C6.42143 3.14286 5.14286 4.42143 5.14286 6ZM2.85714 7.71429V6C2.85714 3.16072 5.16071 0.857147 8 0.857147C10.8393 0.857147 13.1429 3.16072 13.1429 6V7.71429H13.7143C14.975 7.71429 16 8.73929 16 10V16.8571C16 18.1179 14.975 19.1429 13.7143 19.1429H2.28571C1.025 19.1429 0 18.1179 0 16.8571V10C0 8.73929 1.025 7.71429 2.28571 7.71429H2.85714Z" fill="#FCBA6A"/>
</svg>
