<svg width="23" height="20" viewBox="0 0 23 20" fill="none" xmlns="http://www.w3.org/2000/svg">
<path d="M16.1764 4.75777C16.1764 6.92255 13.2781 10.7803 12.0054 12.3702C11.7001 12.7508 11.1332 12.7508 10.8319 12.3702C9.55915 10.7803 6.66087 6.92255 6.66087 4.75777C6.66087 2.1291 8.78998 0 11.4186 0C14.0473 0 16.1764 2.1291 16.1764 4.75777ZM16.4936 7.94547C16.6324 7.6719 16.7592 7.39833 16.8742 7.12872C16.894 7.08114 16.9139 7.0296 16.9337 6.98202L21.5329 5.14235C22.1593 4.89257 22.8373 5.35249 22.8373 6.0265V16.7632C22.8373 17.1518 22.5994 17.5007 22.2386 17.6474L16.4936 19.943V7.94547ZM5.45557 5.48333C5.55073 6.04236 5.74104 6.60537 5.96307 7.12872C6.07805 7.39833 6.20492 7.6719 6.34369 7.94547V17.913L1.30442 19.9311C0.677982 20.1809 0 19.7209 0 19.0469V8.31023C0 7.92168 0.237888 7.57278 0.598686 7.42608L5.45954 5.48333H5.45557ZM12.9966 13.1632C13.5477 12.4733 14.4121 11.3512 15.2249 10.1103V19.9945L7.61243 17.8178V10.1103C8.42521 11.3512 9.28954 12.4733 9.84065 13.1632C10.6534 14.1781 12.1838 14.1781 12.9966 13.1632ZM11.4186 6.0265C11.8393 6.0265 12.2426 5.85942 12.5401 5.562C12.8375 5.26458 13.0046 4.8612 13.0046 4.44058C13.0046 4.01997 12.8375 3.61658 12.5401 3.31917C12.2426 3.02175 11.8393 2.85466 11.4186 2.85466C10.998 2.85466 10.5946 3.02175 10.2972 3.31917C9.99981 3.61658 9.83272 4.01997 9.83272 4.44058C9.83272 4.8612 9.99981 5.26458 10.2972 5.562C10.5946 5.85942 10.998 6.0265 11.4186 6.0265Z" fill="#FCBA6A"/>
</svg>
