<svg width="14" height="14" viewBox="0 0 14 14" fill="none" xmlns="http://www.w3.org/2000/svg">
<path d="M6.99978 1.44611C8.80849 1.44611 9.02268 1.45288 9.7372 1.48546C10.1668 1.49072 10.5923 1.56961 10.9953 1.71869C11.2875 1.83138 11.5528 2.00401 11.7743 2.22546C11.9958 2.44692 12.1684 2.71229 12.2811 3.0045C12.4302 3.40744 12.509 3.83296 12.5143 4.26256C12.5466 4.97708 12.5537 5.19127 12.5537 6.99998C12.5537 8.80869 12.5469 9.02288 12.5143 9.7374C12.509 10.167 12.4302 10.5925 12.2811 10.9955C12.1684 11.2877 11.9958 11.553 11.7743 11.7745C11.5528 11.9959 11.2875 12.1686 10.9953 12.2813C10.5923 12.4304 10.1668 12.5092 9.7372 12.5145C9.02301 12.5468 8.80881 12.5538 6.99978 12.5538C5.19075 12.5538 4.97655 12.5471 4.26236 12.5145C3.83276 12.5092 3.40724 12.4304 3.0043 12.2813C2.71209 12.1686 2.44672 11.9959 2.22526 11.7745C2.00381 11.553 1.83118 11.2877 1.71849 10.9955C1.56941 10.5925 1.49052 10.167 1.48526 9.7374C1.45301 9.02288 1.44591 8.80869 1.44591 6.99998C1.44591 5.19127 1.45268 4.97708 1.48526 4.26256C1.49052 3.83296 1.56941 3.40744 1.71849 3.0045C1.83118 2.71229 2.00381 2.44692 2.22526 2.22546C2.44672 2.00401 2.71209 1.83138 3.0043 1.71869C3.40724 1.56961 3.83276 1.49072 4.26236 1.48546C4.97688 1.45321 5.19107 1.44611 6.99978 1.44611ZM6.99978 0.225464C5.16107 0.225464 4.92946 0.233206 4.20688 0.266109C3.64463 0.277292 3.08836 0.383748 2.56171 0.580948C2.10994 0.751162 1.70074 1.0179 1.36268 1.36256C1.01771 1.70075 0.750745 2.11017 0.580425 2.56224C0.383225 3.08888 0.276769 3.64516 0.265586 4.2074C0.233328 4.92933 0.225586 5.16095 0.225586 6.99966C0.225586 8.83837 0.233328 9.06998 0.266231 9.79256C0.277414 10.3548 0.38387 10.9111 0.58107 11.4377C0.751202 11.8897 1.01795 12.2991 1.36268 12.6374C1.70093 12.9821 2.11035 13.2489 2.56236 13.419C3.089 13.6162 3.64528 13.7227 4.20752 13.7338C4.9301 13.7661 5.16075 13.7745 7.00043 13.7745C8.8401 13.7745 9.07075 13.7668 9.79333 13.7338C10.3556 13.7227 10.9118 13.6162 11.4385 13.419C11.8884 13.2446 12.2969 12.9783 12.6379 12.637C12.979 12.2957 13.2451 11.8871 13.4191 11.4371C13.6163 10.9104 13.7228 10.3542 13.734 9.79191C13.7662 9.06998 13.774 8.83837 13.774 6.99966C13.774 5.16095 13.7662 4.92933 13.7333 4.20675C13.7221 3.64451 13.6157 3.08824 13.4185 2.56159C13.2484 2.10959 12.9816 1.70016 12.6369 1.36192C12.2986 1.01718 11.8892 0.750434 11.4372 0.580303C10.9106 0.383103 10.3543 0.276647 9.79204 0.265464C9.0701 0.233206 8.83849 0.225464 6.99978 0.225464Z" fill="black"/>
<path d="M7.00117 3.52234C6.31315 3.52234 5.64058 3.72636 5.0685 4.10861C4.49643 4.49085 4.05056 5.03415 3.78726 5.6698C3.52397 6.30545 3.45508 7.00491 3.5893 7.67971C3.72353 8.35451 4.05485 8.97436 4.54135 9.46087C5.02786 9.94737 5.64771 10.2787 6.32251 10.4129C6.99731 10.5471 7.69677 10.4783 8.33242 10.215C8.96807 9.95166 9.51137 9.50579 9.89361 8.93372C10.2759 8.36164 10.4799 7.68907 10.4799 7.00105C10.4799 6.07844 10.1134 5.19361 9.46099 4.54123C8.80861 3.88885 7.92378 3.52234 7.00117 3.52234ZM7.00117 9.25911C6.55457 9.25911 6.118 9.12668 5.74666 8.87856C5.37532 8.63044 5.0859 8.27778 4.91499 7.86517C4.74408 7.45256 4.69937 6.99854 4.7865 6.56052C4.87362 6.1225 5.08868 5.72015 5.40448 5.40436C5.72028 5.08856 6.12262 4.8735 6.56065 4.78637C6.99867 4.69924 7.45269 4.74396 7.8653 4.91487C8.2779 5.08578 8.63056 5.3752 8.87868 5.74653C9.1268 6.11787 9.25924 6.55445 9.25924 7.00105C9.25924 7.59992 9.02133 8.17427 8.59786 8.59774C8.1744 9.02121 7.60005 9.25911 7.00117 9.25911Z" fill="black"/>
<path d="M10.6166 4.19697C11.0656 4.19697 11.4295 3.83302 11.4295 3.38407C11.4295 2.93512 11.0656 2.57117 10.6166 2.57117C10.1677 2.57117 9.80371 2.93512 9.80371 3.38407C9.80371 3.83302 10.1677 4.19697 10.6166 4.19697Z" fill="black"/>
</svg>
