<svg width="11" height="14" viewBox="0 0 11 14" fill="none" xmlns="http://www.w3.org/2000/svg">
<path d="M10.1059 5.26362C10.1059 5.74255 9.93852 6.37011 9.62252 7.10615C9.31088 7.83204 8.87557 8.61625 8.38777 9.39432C7.41278 10.9495 6.25769 12.4337 5.5488 13.3061C5.44599 13.4313 5.25989 13.4313 5.15709 13.3061C4.44819 12.4337 3.2931 10.9495 2.31811 9.39432C1.83032 8.61625 1.395 7.83204 1.08336 7.10615C0.767365 6.37011 0.6 5.74255 0.6 5.26362C0.6 2.69851 2.71948 0.6 5.35294 0.6C7.9864 0.6 10.1059 2.69851 10.1059 5.26362ZM7.03532 3.59516C6.58743 3.15474 5.98207 2.90908 5.35294 2.90908C4.72381 2.90908 4.11845 3.15474 3.67056 3.59516C3.22233 4.03591 2.96863 4.63587 2.96863 5.26362C2.96863 5.89137 3.22233 6.49133 3.67056 6.93209C4.11845 7.37251 4.72381 7.61816 5.35294 7.61816C5.98207 7.61816 6.58743 7.37251 7.03532 6.93209C7.48356 6.49133 7.73726 5.89137 7.73726 5.26362C7.73726 4.63587 7.48356 4.03591 7.03532 3.59516Z" stroke="white" stroke-width="1.2"/>
</svg>
