<svg width="29" height="22" viewBox="0 0 29 22" fill="none" xmlns="http://www.w3.org/2000/svg">
<path d="M24.8146 14.75C25.3669 14.75 25.8146 14.3023 25.8146 13.75V11.6875C25.8146 10.3747 24.7525 9.31249 23.4396 9.31249C22.1268 9.31249 21.0647 10.3747 21.0647 11.6875V13.75C21.0647 14.3023 21.5124 14.75 22.0647 14.75H24.8146ZM20.0022 14.75C20.5544 14.75 21.0022 14.3023 21.0022 13.75V11.6875C21.0022 10.3406 22.0927 9.25 23.4396 9.25C24.7866 9.25 25.8771 10.3406 25.8771 11.6875V13.75C25.8771 14.3023 26.3248 14.75 26.8771 14.75C27.0854 14.75 27.2521 14.9167 27.2521 15.125V20.625C27.2521 20.8332 27.0854 20.9999 26.8771 20.9999H20.0022C19.7939 20.9999 19.6272 20.8332 19.6272 20.625V15.125C19.6272 14.9167 19.7939 14.75 20.0022 14.75Z" stroke="#FFB321" stroke-width="2" stroke-linejoin="round"/>
<path d="M13.5591 8.68194C12.7152 9.52585 11.5706 9.99996 10.3772 9.99996C9.18369 9.99996 8.0391 9.52586 7.19519 8.68194C6.35128 7.83804 5.87718 6.69345 5.87718 5.49998C5.87718 4.30651 6.35128 3.16192 7.19519 2.31801C8.0391 1.4741 9.18369 1 10.3772 1C11.5706 1 12.7152 1.4741 13.5591 2.31801C14.403 3.16192 14.8771 4.30651 14.8771 5.49998C14.8771 6.69345 14.403 7.83804 13.5591 8.68194ZM1.7522 20.7237C1.7522 17.0436 4.73338 14.0625 8.4135 14.0625H12.3408C13.8015 14.0625 15.1528 14.5333 16.2521 15.3313V20.6249C16.2521 20.7517 16.2585 20.8768 16.271 20.9999H2.02836C1.87596 20.9999 1.7522 20.8762 1.7522 20.7237Z" stroke="#121212" stroke-width="2" stroke-linejoin="round"/>
</svg>
