<svg width="26" height="21" viewBox="0 0 26 21" fill="none" xmlns="http://www.w3.org/2000/svg">
<path d="M22.1707 6.53438C21.4817 5.15938 19.5067 5.15312 18.8114 6.53438C15.4082 13.3438 15.5223 13.0156 15.5223 13.625C15.5223 15.3484 17.7614 16.75 20.5286 16.75C23.2957 16.75 25.5004 15.3484 25.5004 13.625C25.4645 12.9953 25.5536 13.2844 22.1707 6.53438ZM17.6395 13L20.4551 7.375L23.2786 13H17.6411H17.6395ZM10.4786 13.625C10.4786 12.9953 10.5332 13.2828 7.15043 6.53438C6.45981 5.15938 4.48481 5.15312 3.79106 6.53438C0.387932 13.3438 0.500433 13.0156 0.500433 13.625C0.500433 15.3484 2.7395 16.75 5.47231 16.75C8.20512 16.75 10.4786 15.3469 10.4786 13.625ZM5.46762 7.375L8.29262 13H2.65356L5.46918 7.375H5.46762ZM19.8317 18H14.2332V6.48906C14.6928 6.28815 15.0975 5.97998 15.4134 5.59039C15.7293 5.20081 15.9472 4.74117 16.0489 4.25H20.4926C20.6549 4.24921 20.8155 4.21609 20.9649 4.15256C21.1143 4.08904 21.2495 3.99638 21.3627 3.88001C21.4758 3.76363 21.5647 3.62588 21.624 3.47478C21.6833 3.32369 21.712 3.16229 21.7082 3C21.7082 2.30938 21.1489 1.75 20.4926 1.75H15.4692C15.1804 1.3625 14.8051 1.04773 14.3733 0.830729C13.9415 0.613729 13.465 0.500484 12.9817 0.5C11.9598 0.5 11.0301 0.99375 10.4942 1.75H5.47231C5.30802 1.74979 5.14531 1.78198 4.99347 1.8447C4.84164 1.90743 4.70365 1.99947 4.58741 2.11556C4.47117 2.23166 4.37896 2.36953 4.31604 2.52128C4.25313 2.67304 4.22074 2.83572 4.22075 3C4.22075 3.69062 4.78012 4.25 5.43637 4.25H9.88012C9.98131 4.74074 10.1989 5.19999 10.5146 5.58909C10.8303 5.9782 11.2348 6.28578 11.6942 6.48594V18H6.09731C5.85095 17.9998 5.60696 18.0481 5.3793 18.1423C5.15163 18.2364 4.94475 18.3745 4.77047 18.5486C4.5962 18.7228 4.45795 18.9295 4.36362 19.1571C4.2693 19.3847 4.22075 19.6286 4.22075 19.875C4.22075 20.2188 4.50043 20.5 4.84575 20.5H21.1176C21.2834 20.5 21.4424 20.4342 21.5596 20.3169C21.6768 20.1997 21.7426 20.0408 21.7426 19.875C21.7416 19.626 21.6912 19.3797 21.5944 19.1503C21.4976 18.9209 21.3562 18.7131 21.1785 18.5387C21.0008 18.3643 20.7902 18.2269 20.559 18.1344C20.3279 18.042 20.0806 17.9963 19.8317 18Z" fill="black"/>
</svg>
