<svg width="20" height="19" viewBox="0 0 20 19" fill="none" xmlns="http://www.w3.org/2000/svg">
<mask id="mask0_17_1160" style="mask-type:luminance" maskUnits="userSpaceOnUse" x="0" y="0" width="20" height="19">
<path d="M0 0.676254H20V18.3237H0V0.676254Z" fill="white"/>
</mask>
<g mask="url(#mask0_17_1160)">
<path fill-rule="evenodd" clip-rule="evenodd" d="M13.0189 12.9664C12.8814 13.9752 12.1314 14.6577 11.0564 14.8989V15.3389C11.0559 15.4727 11.0291 15.6051 10.9774 15.7285C10.9258 15.8519 10.8503 15.964 10.7554 16.0582C10.6604 16.1525 10.5478 16.2271 10.4241 16.2778C10.3003 16.3286 10.1677 16.3544 10.0339 16.3539C9.90019 16.3544 9.76767 16.3286 9.64396 16.2778C9.52024 16.2271 9.40774 16.1524 9.31289 16.0581C9.21804 15.9639 9.1427 15.8518 9.09119 15.7284C9.03967 15.605 9.01299 15.4727 9.01266 15.3389V14.8189C8.61752 14.7247 8.22813 14.6079 7.84641 14.4689L7.64766 14.3977C7.11766 14.2102 6.83891 13.5927 7.02641 13.1027C7.21391 12.6127 7.79766 12.3002 8.33016 12.5239L8.53891 12.5952C8.91391 12.7302 9.33891 12.8827 9.66391 12.9289C10.3952 13.0477 10.9964 12.9089 11.0439 12.6214C11.0789 12.4214 11.1002 12.3014 9.75266 11.9177L9.47516 11.8389C8.70016 11.6102 6.64391 11.0102 6.97141 8.91895C7.18391 7.90895 7.93766 7.23145 9.01266 6.99145V6.54645C9.01266 5.98645 9.47016 5.53145 10.0339 5.53145C10.5989 5.53145 11.0564 5.98645 11.0564 6.54645V7.02145C11.3077 7.07895 11.5764 7.1527 11.9002 7.26395C12.0266 7.30688 12.1432 7.37435 12.2435 7.46249C12.3438 7.55063 12.4256 7.6577 12.4844 7.77756C12.5432 7.89742 12.5777 8.0277 12.586 8.16094C12.5942 8.29417 12.5761 8.42773 12.5327 8.55395C12.4425 8.80885 12.2553 9.01782 12.0119 9.13535C11.7684 9.25288 11.4883 9.26945 11.2327 9.18145C10.9604 9.08181 10.6803 9.00529 10.3952 8.9527C9.67516 8.8402 9.07391 8.9777 9.02391 9.2652C8.99391 9.43895 8.93016 9.5752 10.0502 9.8902L10.2752 9.9677C11.3627 10.2752 13.3902 10.8514 13.0189 12.9677M19.6127 8.6552L17.7789 7.0527V2.8827C17.7786 2.73711 17.7495 2.59301 17.6934 2.45868C17.6373 2.32434 17.5552 2.20241 17.4518 2.09986C17.3484 1.99732 17.2259 1.91619 17.0911 1.86112C16.9563 1.80605 16.812 1.77813 16.6664 1.77895H15.5564C15.4109 1.77829 15.2667 1.80634 15.1321 1.86148C14.9975 1.91662 14.875 1.99778 14.7718 2.10031C14.6686 2.20283 14.5866 2.32471 14.5306 2.45897C14.4745 2.59322 14.4455 2.73721 14.4452 2.8827V4.1477L10.7477 0.917701C10.5369 0.756628 10.2779 0.671601 10.0127 0.676451C9.77016 0.676451 9.49266 0.711451 9.25016 0.952701L0.346415 8.6552C0.234609 8.76168 0.146109 8.8902 0.0865108 9.03264C0.0269123 9.17507 -0.00248917 9.32832 0.000164947 9.4827C0.000164947 10.1027 0.487665 10.5889 1.11266 10.5889H2.22516V16.1177C2.22516 17.3339 3.22016 18.3239 4.44766 18.3239H15.5727C16.8027 18.3239 17.7989 17.3314 17.7964 16.1077L17.7714 10.5889H18.8839C19.177 10.587 19.4577 10.4699 19.6653 10.263C19.873 10.0561 19.991 9.77583 19.9939 9.4827C20.0314 9.1727 19.8902 8.89645 19.6127 8.6552Z" fill="black"/>
</g>
</svg>
