<svg width="20" height="17" viewBox="0 0 20 17" fill="none" xmlns="http://www.w3.org/2000/svg">
<path d="M18.3337 0.73938H1.66625C0.74625 0.73938 0 1.48438 0 2.40188V2.95688H20V2.40188C20 1.48438 19.2537 0.73938 18.3337 0.73938ZM0 14.5981C0 15.5169 0.74625 16.2606 1.66625 16.2606H18.3337C19.2537 16.2606 20 15.5169 20 14.5981V4.06563H0V14.5981ZM12.7775 6.28313H17.2225C17.5275 6.28313 17.7775 6.53313 17.7775 6.83688C17.7775 7.14188 17.5275 7.39188 17.2225 7.39188H12.7775C12.6304 7.39155 12.4894 7.33297 12.3854 7.22896C12.2814 7.12495 12.2228 6.98397 12.2225 6.83688C12.2225 6.53313 12.4725 6.28313 12.7775 6.28313ZM12.7775 8.50063H17.2225C17.5275 8.50063 17.7775 8.75063 17.7775 9.05438C17.7775 9.35938 17.5275 9.60938 17.2225 9.60938H12.7775C12.6304 9.60905 12.4894 9.55047 12.3854 9.44646C12.2814 9.34245 12.2228 9.20147 12.2225 9.05438C12.2225 8.75063 12.4725 8.50063 12.7775 8.50063ZM12.7775 10.7181H17.2225C17.2975 10.7146 17.3725 10.7263 17.4428 10.7525C17.5132 10.7788 17.5775 10.819 17.6318 10.8709C17.6862 10.9227 17.7295 10.985 17.759 11.054C17.7886 11.1231 17.8038 11.1974 17.8038 11.2725C17.8038 11.3476 17.7886 11.4219 17.759 11.491C17.7295 11.56 17.6862 11.6223 17.6318 11.6741C17.5775 11.726 17.5132 11.7662 17.4428 11.7925C17.3725 11.8187 17.2975 11.8304 17.2225 11.8269H12.7775C12.7025 11.8304 12.6275 11.8187 12.5572 11.7925C12.4868 11.7662 12.4225 11.726 12.3681 11.6741C12.3138 11.6223 12.2705 11.56 12.241 11.491C12.2114 11.4219 12.1962 11.3476 12.1962 11.2725C12.1962 11.1974 12.2114 11.1231 12.241 11.054C12.2705 10.985 12.3138 10.9227 12.3681 10.8709C12.4225 10.819 12.4868 10.7788 12.5572 10.7525C12.6275 10.7263 12.7025 10.7146 12.7775 10.7181ZM6.1125 6.28313C7.34 6.28313 8.335 7.27563 8.335 8.50063C8.335 9.72563 7.3375 10.7181 6.11125 10.7181C5.81961 10.7186 5.53073 10.6616 5.26112 10.5505C4.9915 10.4393 4.74644 10.276 4.53993 10.0701C4.33342 9.86418 4.16951 9.61958 4.05756 9.35028C3.94561 9.08099 3.88783 8.79227 3.8875 8.50063C3.8875 7.27563 4.88375 6.28313 6.11 6.28313H6.1125ZM3.8875 11.8269H8.3325C9.25375 11.8269 10 12.5719 10 13.4894C10 13.5623 9.98564 13.6344 9.95775 13.7018C9.92986 13.7691 9.88898 13.8303 9.83744 13.8818C9.7859 13.9334 9.72472 13.9742 9.65738 14.0021C9.59005 14.03 9.51788 14.0444 9.445 14.0444H2.7775C2.6304 14.044 2.48943 13.9855 2.38542 13.8815C2.28141 13.7774 2.22283 13.6365 2.2225 13.4894C2.2225 12.5719 2.96875 11.8269 3.88875 11.8269H3.8875Z" fill="black"/>
</svg>
