<svg width="20" height="19" viewBox="0 0 20 19" fill="none" xmlns="http://www.w3.org/2000/svg">
<mask id="mask0_17_1172" style="mask-type:luminance" maskUnits="userSpaceOnUse" x="0" y="0" width="20" height="19">
<path d="M0 0.75H20V18.25H0V0.75Z" fill="white"/>
</mask>
<g mask="url(#mask0_17_1172)">
<path fill-rule="evenodd" clip-rule="evenodd" d="M2.5 15.125C2.5 15.2908 2.56585 15.4497 2.68306 15.5669C2.80027 15.6841 2.95924 15.75 3.125 15.75H18.75C19.0815 15.75 19.3995 15.8817 19.6339 16.1161C19.8683 16.3505 20 16.6685 20 17C20 17.3315 19.8683 17.6495 19.6339 17.8839C19.3995 18.1183 19.0815 18.25 18.75 18.25H3.125C2.2962 18.25 1.50134 17.9208 0.915291 17.3347C0.32924 16.7487 0 15.9538 0 15.125L0 2C0 1.66848 0.131696 1.35054 0.366116 1.11612C0.600537 0.881696 0.918479 0.75 1.25 0.75C1.58152 0.75 1.89946 0.881696 2.13388 1.11612C2.3683 1.35054 2.5 1.66848 2.5 2V15.125Z" fill="black"/>
</g>
<path fill-rule="evenodd" clip-rule="evenodd" d="M11.7774 10.615C11.6823 10.7143 11.5681 10.7932 11.4417 10.8472C11.3152 10.9012 11.1792 10.929 11.0417 10.929C10.9043 10.929 10.7682 10.9012 10.6418 10.8472C10.5154 10.7932 10.4012 10.7143 10.3061 10.615L8.43736 8.69501L5.52736 11.6875C5.43227 11.7868 5.31808 11.8657 5.19165 11.9197C5.06523 11.9737 4.9292 12.0015 4.79174 12.0015C4.65428 12.0015 4.51825 11.9737 4.39183 11.9197C4.2654 11.8657 4.15121 11.7868 4.05612 11.6875C3.86005 11.4843 3.75049 11.213 3.75049 10.9306C3.75049 10.6483 3.86005 10.3769 4.05612 10.1738L7.70111 6.42376C7.79622 6.32431 7.9105 6.24516 8.03703 6.19108C8.16357 6.13701 8.29976 6.10913 8.43736 6.10913C8.57497 6.10913 8.71115 6.13701 8.83769 6.19108C8.96423 6.24516 9.0785 6.32431 9.17361 6.42376L11.0424 8.34251L14.4736 4.81626C14.5686 4.71684 14.6828 4.63772 14.8092 4.58366C14.9356 4.5296 15.0717 4.50172 15.2092 4.50172C15.3467 4.50172 15.4828 4.5296 15.6093 4.58366C15.7357 4.63772 15.8499 4.71684 15.9449 4.81626C16.1403 5.01953 16.2494 5.29055 16.2494 5.57251C16.2494 5.85447 16.1403 6.12548 15.9449 6.32876L11.7774 10.615Z" fill="black"/>
<path fill-rule="evenodd" clip-rule="evenodd" d="M15.0826 7.26249L16.6238 5.6575L16.5901 7.19999C16.5857 7.47332 16.6898 7.73725 16.8796 7.93402C17.0693 8.1308 17.3293 8.24441 17.6026 8.24999C17.8766 8.25637 18.1419 8.15369 18.3402 7.96453C18.5385 7.77537 18.6535 7.51522 18.6601 7.24124L18.7501 3.05C18.7626 2.4725 18.2263 1.9625 17.6476 2.0025L13.4663 2.3025C13.1932 2.32016 12.9383 2.44556 12.7575 2.65112C12.5768 2.85669 12.4851 3.1256 12.5026 3.39875C12.5401 3.96625 13.0338 4.39499 13.6026 4.35749L15.1288 4.23374L13.5863 5.84124" fill="black"/>
</svg>
