<svg width="24" height="25" viewBox="0 0 24 25" fill="none" xmlns="http://www.w3.org/2000/svg">
<path d="M10.0969 5H6.75H5.05313H4.5V5.4125V7.25V9.14375V13.3156L0.009375 9.99219C0.084375 9.14375 0.520312 8.35625 1.21406 7.84531L2.25 7.07656V5C2.25 3.75781 3.25781 2.75 4.5 2.75H8.09063L10.4297 1.02031C10.8844 0.682813 11.4328 0.5 12 0.5C12.5672 0.5 13.1156 0.682813 13.5703 1.01562L15.9094 2.75H19.5C20.7422 2.75 21.75 3.75781 21.75 5V7.07656L22.7859 7.84531C23.4797 8.35625 23.9156 9.14375 23.9906 9.99219L19.5 13.3156V9.14375V7.25V5.4125V5H18.9469H17.25H13.9031H10.0969ZM0 21.5V11.8484L10.2 19.4047C10.7203 19.7891 11.3531 20 12 20C12.6469 20 13.2797 19.7937 13.8 19.4047L24 11.8484V21.5C24 23.1547 22.6547 24.5 21 24.5H3C1.34531 24.5 0 23.1547 0 21.5ZM8.25 8H15.75C16.1625 8 16.5 8.3375 16.5 8.75C16.5 9.1625 16.1625 9.5 15.75 9.5H8.25C7.8375 9.5 7.5 9.1625 7.5 8.75C7.5 8.3375 7.8375 8 8.25 8ZM8.25 11H15.75C16.1625 11 16.5 11.3375 16.5 11.75C16.5 12.1625 16.1625 12.5 15.75 12.5H8.25C7.8375 12.5 7.5 12.1625 7.5 11.75C7.5 11.3375 7.8375 11 8.25 11Z" fill="white"/>
</svg>
