<svg width="22" height="23" viewBox="0 0 22 23" fill="none" xmlns="http://www.w3.org/2000/svg">
<path d="M17.8724 9.65836C17.8724 11.6303 17.2322 13.4519 16.1539 14.9299L21.5929 20.3732C22.13 20.9102 22.13 21.7824 21.5929 22.3194C21.0559 22.8564 20.1838 22.8564 19.6467 22.3194L14.2077 16.8761C12.7298 17.9587 10.9082 18.5945 8.93619 18.5945C3.9998 18.5945 0 14.5947 0 9.65836C0 4.72197 3.9998 0.722168 8.93619 0.722168C13.8726 0.722168 17.8724 4.72197 17.8724 9.65836ZM8.93619 15.845C9.74863 15.845 10.5531 15.6849 11.3037 15.374C12.0543 15.0631 12.7363 14.6074 13.3108 14.0329C13.8853 13.4585 14.341 12.7765 14.6519 12.0259C14.9628 11.2753 15.1228 10.4708 15.1228 9.65836C15.1228 8.84592 14.9628 8.04144 14.6519 7.29085C14.341 6.54026 13.8853 5.85825 13.3108 5.28378C12.7363 4.7093 12.0543 4.2536 11.3037 3.94269C10.5531 3.63179 9.74863 3.47177 8.93619 3.47177C8.12376 3.47177 7.31928 3.63179 6.56868 3.94269C5.81809 4.2536 5.13609 4.7093 4.56161 5.28378C3.98713 5.85825 3.53143 6.54026 3.22052 7.29085C2.90962 8.04144 2.7496 8.84592 2.7496 9.65836C2.7496 10.4708 2.90962 11.2753 3.22052 12.0259C3.53143 12.7765 3.98713 13.4585 4.56161 14.0329C5.13609 14.6074 5.81809 15.0631 6.56868 15.374C7.31928 15.6849 8.12376 15.845 8.93619 15.845Z" fill="white"/>
</svg>
