<svg width="11" height="14" viewBox="0 0 11 14" fill="none" xmlns="http://www.w3.org/2000/svg">
<path d="M6.81443 6.75002C7.36671 6.75002 7.81443 6.30231 7.81443 5.75002V3.68753C7.81443 2.3747 6.75226 1.31254 5.43943 1.31254C4.1266 1.31254 3.06444 2.37471 3.06444 3.68753V5.75002C3.06444 6.30231 3.51216 6.75002 4.06444 6.75002H6.81443ZM2.00195 6.75002C2.55423 6.75002 3.00195 6.30231 3.00195 5.75002V3.68753C3.00195 2.34061 4.09251 1.25005 5.43943 1.25005C6.78636 1.25005 7.87692 2.34061 7.87692 3.68753V5.75002C7.87692 6.30231 8.32464 6.75002 8.87692 6.75002C9.08518 6.75002 9.25192 6.91676 9.25192 7.12502V12.625C9.25192 12.8333 9.08518 13 8.87692 13H2.00195C1.79369 13 1.62695 12.8333 1.62695 12.625V7.12502C1.62695 6.91676 1.79369 6.75002 2.00195 6.75002Z" stroke="#FCBA6A" stroke-width="2" stroke-linejoin="round"/>
</svg>
