<svg width="23" height="22" viewBox="0 0 23 22" fill="none" xmlns="http://www.w3.org/2000/svg">
<path d="M6.06368 1.02589L6.0641 1.02577C6.39698 0.934829 6.74155 1.09222 6.89224 1.39438L6.91411 1.44687L8.63279 5.57168L8.63295 5.57209C8.75476 5.86407 8.67117 6.20056 8.42455 6.4022C8.42454 6.40221 8.42453 6.40222 8.42452 6.40223L6.30628 8.13376L5.70083 8.62868L6.03521 9.33559C7.56492 12.5696 10.1824 15.187 13.4164 16.7167L14.1224 17.0507L14.6174 16.4466L16.3533 14.3283L16.3533 14.3284L16.3568 14.324C16.5519 14.0832 16.8897 13.9962 17.1842 14.119L17.1846 14.1192L21.3094 15.8378L21.3115 15.8387C21.6435 15.9762 21.8216 16.3384 21.7262 16.6879L21.7261 16.6883L20.6956 20.4665C20.6956 20.4668 20.6955 20.4671 20.6954 20.4674C20.6076 20.7842 20.3209 21 20.0011 21C9.92339 21 1.75195 12.8286 1.75195 2.75085C1.75195 2.43109 1.96765 2.14452 2.28428 2.05663C2.28465 2.05653 2.28503 2.05642 2.2854 2.05632L6.06368 1.02589Z" stroke="#FCBA6A" stroke-width="2"/>
</svg>
