<svg width="118" height="22" viewBox="0 0 118 22" fill="none" xmlns="http://www.w3.org/2000/svg">
<path d="M41.1648 21.0992C35.4447 21.0639 30.8651 16.3902 30.9001 10.6231C30.9352 4.96176 35.7079 0.270449 41.3052 0.340995C47.0077 0.411541 51.6575 5.1734 51.5874 10.8524C51.5347 16.5313 46.8498 21.1344 41.1648 21.0992ZM41.1999 17.0251C44.6565 17.0251 47.5692 14.1504 47.5341 10.7289C47.4991 7.27214 44.6214 4.39739 41.2174 4.39739C37.7959 4.39739 34.9358 7.28978 34.9534 10.7642C34.9534 14.1857 37.7783 17.0251 41.1999 17.0251ZM101.244 10.7642C101.244 7.67778 101.244 4.59139 101.244 1.52264C101.244 1.22282 101.051 0.764272 101.665 0.781908C104.174 0.834818 106.701 0.570271 109.192 0.923001C115.421 1.8401 117.807 6.69014 117.281 11.9105C116.737 17.325 113.245 20.4995 107.806 20.6935C105.858 20.7641 103.893 20.6935 101.928 20.7288C101.349 20.7464 101.209 20.5701 101.209 19.9881C101.261 16.937 101.244 13.8506 101.244 10.7642ZM105.227 10.6584C105.227 12.422 105.262 14.1857 105.209 15.9493C105.192 16.5842 105.402 16.7782 105.999 16.7077C106.63 16.6548 107.28 16.69 107.929 16.6548C110.333 16.5313 112.403 14.9793 113 12.8629C113.824 9.97053 113.052 7.27214 110.964 5.82595C109.333 4.69721 107.455 4.69722 105.578 4.71485C105.104 4.71485 105.227 5.10285 105.227 5.3674C105.227 7.14869 105.227 8.8947 105.227 10.6584ZM30.637 20.7288C29.1104 20.7288 27.7769 20.6935 26.4258 20.7464C25.917 20.7641 25.6538 20.5524 25.373 20.1644C23.6359 17.5366 21.8638 14.9088 20.0916 12.2809C19.9336 12.0516 19.8459 11.7518 19.4599 11.5755C19.4599 11.9105 19.4599 12.1927 19.4599 12.4749C19.4599 14.9969 19.4423 17.519 19.4774 20.041C19.4774 20.5524 19.3897 20.7817 18.8107 20.7464C17.9158 20.6935 17.0034 20.7112 16.091 20.7464C15.6172 20.7641 15.4418 20.6583 15.4418 20.1292C15.4593 13.8858 15.4593 7.62488 15.4418 1.38155C15.4418 0.940636 15.547 0.764271 16.0208 0.764271C18.2316 0.799544 20.4776 0.693725 22.6709 0.852453C25.18 1.04645 27.075 2.38683 28.1103 4.71485C29.1104 6.95469 28.8121 9.12398 27.3382 11.0993C26.9171 11.6636 26.3907 12.1927 25.7415 12.4396C24.9344 12.7571 25.18 13.0746 25.5309 13.5507C27.0575 15.6671 28.5489 17.8011 30.0579 19.9175C30.2334 20.1468 30.3913 20.3761 30.637 20.7288ZM21.004 9.77653C21.3023 9.77653 21.583 9.77653 21.8813 9.77653C23.4429 9.72362 24.5834 8.64779 24.5834 7.23687C24.5659 5.87886 23.4429 4.80303 21.9339 4.73249C21.3198 4.71485 20.7057 4.76776 20.0916 4.71485C19.5652 4.67958 19.4423 4.89122 19.4599 5.3674C19.495 6.30214 19.4599 7.23687 19.4599 8.18924C19.4599 9.77653 19.4599 9.77653 21.004 9.77653ZM87.0311 20.0233C87.0311 20.4113 86.9609 20.7464 87.575 20.7464C91.2071 20.7112 94.8217 20.7288 98.4538 20.7464C98.9627 20.7464 99.0153 20.5348 99.0153 20.1292C98.9977 19.2473 98.9627 18.3655 99.0153 17.4837C99.0504 16.8311 98.8047 16.7077 98.2257 16.7253C96.0675 16.7606 93.8917 16.7253 91.7335 16.743C91.2247 16.743 90.9966 16.6371 91.0317 16.0728C91.0843 15.1733 91.0843 14.2562 91.0317 13.3391C90.9966 12.7395 91.2071 12.5984 91.7686 12.616C93.5759 12.6513 95.4007 12.616 97.208 12.6336C97.6993 12.6336 97.9625 12.5631 97.9274 11.9811C97.8748 11.0816 97.8923 10.1645 97.9274 9.24744C97.945 8.75361 97.787 8.57725 97.2782 8.59488C96.2254 8.63016 95.1726 8.61252 94.1198 8.59488C93.1372 8.57725 91.8213 9.01816 91.2422 8.43615C90.6281 7.81888 91.1194 6.49614 91.0317 5.47322C90.979 4.87358 91.1721 4.67958 91.7862 4.67958C93.9795 4.71485 96.1728 4.67958 98.3661 4.69721C98.8398 4.69721 99.0328 4.59139 99.0153 4.07994C98.9802 3.23338 98.9627 2.36919 99.0153 1.52264C99.0504 0.887727 98.8398 0.746636 98.2257 0.746636C94.7515 0.781909 91.2773 0.781909 87.7856 0.746636C87.1715 0.746636 86.996 0.887727 87.0135 1.52264C87.0486 4.57376 87.0311 7.62487 87.0311 10.676C87.0311 13.7977 87.0311 16.9193 87.0311 20.0233ZM0.0184778 10.6936C0.0184778 7.66015 0.0360242 4.6443 0.000931374 1.61082C-0.016615 0.887727 0.211488 0.746634 0.878252 0.764271C3.07155 0.81718 5.26485 0.728998 7.45815 0.817181C11.371 0.940636 14.3539 4.46794 13.9152 8.36561C13.5818 11.4167 10.6691 14.0975 7.51079 14.2209C6.58083 14.2562 5.63333 14.2562 4.70337 14.2209C4.15943 14.2033 4.00151 14.3973 4.01906 14.9264C4.05415 16.5666 3.98397 18.2244 4.05415 19.8646C4.08924 20.623 3.82605 20.817 3.12419 20.7641C2.3697 20.6935 1.59765 20.7112 0.843159 20.7641C0.193942 20.817 0.000931441 20.623 0.0184778 19.9528C0.0360243 16.8488 0.0184778 13.7624 0.0184778 10.6936ZM4.01906 7.50142C4.01906 8.20688 4.0366 8.91234 4.01906 9.6178C4.00151 10.0764 4.10679 10.3233 4.63318 10.3056C5.42277 10.2704 6.21236 10.3233 7.00195 10.288C8.72149 10.1998 10.0024 8.98289 10.0024 7.46615C9.98484 6.00232 8.70395 4.82067 7.00195 4.75012C6.21236 4.71485 5.42277 4.76776 4.63318 4.73249C4.08924 4.69721 4.00151 4.94413 4.01906 5.40267C4.0366 6.0905 4.01906 6.79596 4.01906 7.50142ZM53.342 19.9881C53.342 20.623 53.5175 20.7994 54.1316 20.7464C54.9212 20.6935 55.7108 20.6935 56.5004 20.7464C57.1671 20.7994 57.4128 20.6054 57.3952 19.8823C57.3426 17.7482 57.3952 15.5966 57.3601 13.4626C57.3426 12.8806 57.5356 12.7218 58.0971 12.7395C59.9044 12.7747 61.7116 12.7395 63.5365 12.7571C64.0453 12.7571 64.2734 12.6336 64.2559 12.0693C64.2208 11.1875 64.2032 10.3056 64.2559 9.4238C64.291 8.80652 64.0453 8.7007 63.5014 8.71834C61.6941 8.75361 59.8868 8.71834 58.062 8.73597C57.5531 8.73597 57.325 8.63016 57.3601 8.06579C57.4128 7.21924 57.4128 6.35505 57.3601 5.50849C57.325 4.87358 57.483 4.64431 58.1673 4.66194C60.3255 4.71485 62.4837 4.66194 64.6594 4.69721C65.1683 4.69721 65.3964 4.60903 65.3613 4.02703C65.3086 3.1452 65.3086 2.26337 65.3613 1.38155C65.3964 0.781907 65.1858 0.640817 64.6243 0.658453C61.1502 0.67609 57.676 0.693726 54.2018 0.658453C53.5526 0.658453 53.3596 0.817181 53.3771 1.48737C53.4122 4.57376 53.3946 7.64251 53.3946 10.7289C53.342 13.8329 53.3596 16.9193 53.342 19.9881ZM73.5204 20.0233C73.5204 20.4113 73.4677 20.7464 74.0643 20.7464C77.6964 20.7288 81.311 20.7288 84.9431 20.7464C85.3642 20.7464 85.5046 20.623 85.487 20.1997C85.4519 19.3532 85.4344 18.489 85.487 17.6424C85.5397 16.9193 85.3466 16.69 84.5921 16.7077C82.5392 16.7606 80.5038 16.69 78.4509 16.743C77.6789 16.7606 77.4859 16.549 77.4859 15.7729C77.521 11.0464 77.5034 6.31977 77.521 1.59319C77.521 1.06409 77.521 0.693726 76.8016 0.746636C75.9593 0.817182 75.0995 0.799545 74.2573 0.746636C73.6432 0.711363 73.4853 0.905363 73.4853 1.52264C73.5204 4.60903 73.5028 7.69542 73.5028 10.7818C73.5204 13.8506 73.5204 16.937 73.5204 20.0233ZM66.8527 20.0233C66.8527 20.6054 67.0282 20.7641 67.5897 20.7464C68.4846 20.6935 69.397 20.7112 70.3094 20.7464C70.7129 20.7641 70.8884 20.6583 70.8884 20.2173C70.8709 13.9387 70.8709 7.66015 70.8884 1.36391C70.8884 0.887728 70.7129 0.764271 70.2743 0.764271C69.397 0.781907 68.5196 0.81718 67.6423 0.764271C67.0282 0.728998 66.8527 0.905364 66.8703 1.54028C66.9054 4.62667 66.8878 7.71306 66.8878 10.7818C66.8527 13.8506 66.8703 16.937 66.8527 20.0233Z" fill="white"/>
</svg>
