<svg width="43" height="37" viewBox="0 0 43 37" fill="none" xmlns="http://www.w3.org/2000/svg">
<path d="M36.6237 28.2845C36.6237 30.5949 36.7816 32.923 36.6062 35.2333C36.536 36.1504 36.1149 36.3973 35.3604 36.415C33.0267 36.4326 30.693 36.4503 28.3418 36.4503C27.3768 36.4503 26.4117 36.415 25.4467 36.415C24.6044 36.415 24.236 36.0093 24.236 35.1804C24.236 32.3939 24.236 29.6073 24.2009 26.8207C24.1658 23.8225 24.3763 24.14 21.4812 24.1223C18.9721 24.1047 18.9896 24.1223 18.9721 26.6267C18.937 29.4662 19.0773 32.3233 18.9019 35.1628C18.8492 36.0446 18.4632 36.4326 17.6034 36.4326C14.3574 36.4326 11.1113 36.4326 7.86518 36.4326C6.95277 36.4326 6.53165 36.0975 6.49656 35.0746C6.37373 30.736 6.33864 26.3974 6.53165 22.0589C6.56674 21.3181 7.0405 20.8067 7.51426 20.3481C9.28644 18.6021 11.0762 16.8737 12.8659 15.1453C15.0241 13.0819 17.1648 11.0184 19.3581 8.97256C21.604 6.87382 21.5163 6.83854 23.7622 8.95493C27.6575 12.641 31.4826 16.3799 35.3604 20.0483C36.2553 20.8948 36.6939 21.8296 36.6413 23.0641C36.5886 24.8278 36.6237 26.5562 36.6237 28.2845ZM12.7606 24.0694C12.1816 24.0694 11.6026 24.0694 11.006 24.0694C10.2866 24.0518 9.91811 24.3869 9.91811 25.1276C9.91811 26.2387 9.91811 27.3498 9.91811 28.4609C9.91811 29.1487 10.269 29.4838 10.9358 29.4838C12.0939 29.4838 13.2695 29.4838 14.4275 29.4838C15.0768 29.4838 15.4803 29.184 15.5505 28.5138C15.6733 27.3851 15.6558 26.2387 15.5681 25.0923C15.5154 24.4045 15.1118 24.0518 14.41 24.0518C13.8661 24.0871 13.3046 24.0694 12.7606 24.0694ZM30.3948 29.378C30.9738 29.378 31.5704 29.3604 32.1494 29.378C32.8162 29.4133 33.1144 29.1311 33.0969 28.4433C33.0618 27.3322 33.0618 26.2211 33.0969 25.11C33.1144 24.4221 32.7986 24.1752 32.1494 24.1752C30.9738 24.1929 29.8157 24.1929 28.6401 24.1752C27.9909 24.1576 27.64 24.4751 27.6224 25.11C27.6049 26.2211 27.5873 27.3322 27.6224 28.4433C27.64 29.0782 27.9909 29.3956 28.6401 29.3604C29.2367 29.3427 29.8157 29.378 30.3948 29.378ZM33.5882 4.22834C33.5882 3.6287 33.3426 3.27597 32.7284 3.25833C31.8511 3.24069 30.9738 3.25833 30.0965 3.25833C29.6052 3.25833 29.342 3.50524 29.3595 4.0167C29.3771 4.75744 29.3595 5.48053 29.3595 6.22127C29.3595 6.50345 29.4473 6.87382 29.1314 7.01491C28.7805 7.19128 28.5524 6.83854 28.3243 6.62691C26.6749 5.05726 25.0431 3.45233 23.3762 1.90032C21.2004 -0.127879 21.6742 0.101395 19.8143 1.84741C13.7257 7.57928 7.68972 13.3993 1.65375 19.2017C1.32037 19.5192 0.829072 19.8719 0.951897 20.3481C1.16245 21.2123 1.96959 21.6003 2.6539 22.0059C3.21538 22.3587 3.58386 21.8472 3.91724 21.5298C5.93508 19.625 7.95292 17.7026 9.97075 15.7803C13.5327 12.394 17.0946 9.00784 20.639 5.58635C21.2706 4.98671 21.7444 4.89853 22.4111 5.53344C25.4818 8.49638 28.605 11.424 31.6932 14.3693C34.2199 16.7679 36.729 19.1841 39.2557 21.5827C39.5364 21.8472 39.8523 22.2176 40.2208 22.0765C40.9928 21.7767 41.7298 21.2829 42.0631 20.5421C42.3439 19.9248 41.7297 19.431 41.2911 19.0077C38.975 16.7679 36.6588 14.5457 34.3076 12.3235C33.7812 11.8297 33.5356 11.2653 33.5707 10.5422C33.6233 9.55457 33.5882 8.54929 33.5882 7.54401C33.5882 6.45054 33.5707 5.33944 33.5882 4.22834Z" fill="#FCBA6A"/>
</svg>
