<svg width="25" height="22" viewBox="0 0 25 22" fill="none" xmlns="http://www.w3.org/2000/svg">
<path d="M23.9995 10.8681L23.9934 10.9231V10.9785C23.9934 11.1667 23.8463 11.3257 23.6722 11.3535H23.6184H22.2434H21.239L21.2434 12.3579L21.2734 19.2371C21.2734 19.2377 21.2734 19.2384 21.2734 19.239C21.2733 19.3113 21.2681 19.3873 21.2585 19.4705L21.252 19.5277V19.5852V20.2812C21.252 20.6786 20.9305 21 20.5332 21H19.8457C19.8363 21 19.8287 21 19.8223 21C19.8114 20.9999 19.8041 20.9999 19.7975 20.9997C19.7946 20.9997 19.7926 20.9996 19.7915 20.9995L19.7136 20.9925L19.6327 20.9982C19.614 20.9996 19.5895 21 19.5234 21H18.127H17.0957C16.6984 21 16.377 20.6786 16.377 20.2812V19.25V16.5C16.377 15.1872 15.3148 14.125 14.002 14.125H11.252C9.93912 14.125 8.87695 15.1872 8.87695 16.5V19.25V20.2812C8.87695 20.6786 8.55553 21 8.1582 21H7.12695H5.75195C5.72637 21 5.69518 20.9983 5.62512 20.9936L5.55028 20.9886L5.47554 20.9949C5.44803 20.9972 5.43258 20.9984 5.41887 20.9993C5.40794 20.9999 5.40362 21 5.40362 21H4.71641C4.31908 21 3.99766 20.6786 3.99766 20.2812V15.473L3.9977 15.4481L3.99773 15.4462L4.00195 15.4081V15.3527V12.3578V11.3578H3.00195H1.62695C1.40989 11.3578 1.25195 11.2038 1.25195 10.9785C1.25195 10.8553 1.2787 10.7717 1.36963 10.6742L12.3601 1.09769L12.386 1.07513L12.4102 1.05086C12.4255 1.03555 12.4355 1.02912 12.4402 1.02639C12.4451 1.02352 12.4518 1.02032 12.4631 1.01691C12.4903 1.00876 12.5409 1 12.6484 1C12.7068 1 12.7673 1.00875 12.8193 1.02489C12.8647 1.03896 12.8918 1.05486 12.9056 1.06511L17.4664 5.07774L19.127 6.53871V4.32695V2.75C19.127 2.54174 19.2937 2.375 19.502 2.375H20.877C21.0852 2.375 21.252 2.54174 21.252 2.75V7.94922V8.40105L21.591 8.69968L23.8598 10.6977L23.8622 10.6998C23.9565 10.7824 23.9881 10.837 23.9966 10.8551C23.9985 10.8591 23.9994 10.8617 23.9998 10.863C23.9998 10.864 23.9997 10.8656 23.9995 10.8681Z" stroke="white" stroke-width="2"/>
</svg>
