<svg width="18" height="22" viewBox="0 0 18 22" fill="none" xmlns="http://www.w3.org/2000/svg">
<path d="M13.5589 8.68194C12.715 9.52585 11.5704 9.99996 10.3769 9.99996C9.18345 9.99996 8.03886 9.52586 7.19495 8.68194C6.35104 7.83804 5.87694 6.69345 5.87694 5.49998C5.87694 4.30651 6.35104 3.16192 7.19495 2.31801C8.03886 1.4741 9.18345 1 10.3769 1C11.5704 1 12.715 1.4741 13.5589 2.31801C14.4028 3.16192 14.8769 4.30651 14.8769 5.49998C14.8769 6.69345 14.4028 7.83804 13.5589 8.68194ZM1.75195 20.7237C1.75195 17.0436 4.73313 14.0625 8.41325 14.0625H12.3406C13.8012 14.0625 15.1526 14.5333 16.2519 15.3313V20.6249C16.2519 20.7517 16.2583 20.8768 16.2707 20.9999H2.02812C1.87572 20.9999 1.75195 20.8762 1.75195 20.7237Z" stroke="black" stroke-width="2" stroke-linejoin="round"/>
</svg>
