<svg width="128" height="21" viewBox="0 0 128 21" fill="none" xmlns="http://www.w3.org/2000/svg">
<path d="M111.561 0.990196C111.561 1.87202 111.526 2.75385 111.579 3.63567C111.614 4.3235 111.35 4.49986 110.719 4.46459C109.701 4.41168 108.666 4.49986 107.648 4.42932C106.876 4.37641 106.648 4.62332 106.648 5.39933C106.683 10.0906 106.648 14.7996 106.683 19.4909C106.683 20.2316 106.508 20.4785 105.771 20.4256C104.981 20.3551 104.191 20.3727 103.402 20.4256C102.77 20.4609 102.63 20.2316 102.63 19.632C102.647 14.8701 102.63 10.1259 102.665 5.36405C102.665 4.60568 102.489 4.3235 101.7 4.37641C100.63 4.44695 99.5417 4.35877 98.4538 4.41168C97.8572 4.42932 97.6993 4.21768 97.7344 3.65331C97.7695 2.85967 97.787 2.06602 97.7344 1.27238C97.6818 0.584556 97.8923 0.372918 98.5942 0.372918C102.84 0.408191 107.069 0.390555 111.315 0.390555C112.631 0.390555 113.947 0.408191 115.263 0.372918C115.842 0.355281 116.141 0.549283 116.404 1.07838C117.421 3.12421 118.509 5.13478 119.65 7.30407C120.229 6.24588 120.738 5.29351 121.229 4.35877C121.826 3.2124 122.44 2.08366 123.019 0.91965C123.194 0.56692 123.422 0.408191 123.843 0.408191C124.931 0.425828 126.002 0.443464 127.09 0.408191C127.791 0.390555 127.704 0.637466 127.458 1.09602C125.686 4.34113 123.949 7.58625 122.177 10.8314C121.808 11.5016 121.633 12.1541 121.65 12.9125C121.685 15.117 121.633 17.3216 121.685 19.5262C121.703 20.2493 121.457 20.4256 120.79 20.3904C120.036 20.3375 119.264 20.3375 118.509 20.3904C117.895 20.4256 117.72 20.214 117.72 19.5967C117.755 17.2511 117.72 14.9054 117.737 12.5421C117.737 12.1188 117.667 11.7485 117.457 11.3605C115.632 7.99189 113.807 4.60568 112 1.21947C111.929 1.09602 111.842 0.990196 111.772 0.884377C111.684 0.954923 111.631 0.97256 111.561 0.990196ZM51.5874 10.461C51.5874 4.76441 46.9025 0.0378241 41.235 0.0025511C35.6377 -0.0150854 30.8826 4.76441 30.9001 10.3728C30.9177 16.1576 35.4973 20.7784 41.235 20.7784C46.92 20.7784 51.5874 16.1223 51.5874 10.461ZM47.5517 10.4257C47.5692 13.8296 44.639 16.722 41.1823 16.7043C37.7608 16.6867 34.9534 13.8649 34.9534 10.4257C34.9358 6.9337 37.7432 4.1295 41.235 4.1295C44.7092 4.14713 47.5341 6.96897 47.5517 10.4257ZM97.7519 19.7731C96.1728 17.5509 94.6111 15.3287 93.0144 13.1241C92.681 12.6656 92.6284 12.4187 93.225 12.1541C93.8917 11.8543 94.4708 11.3781 94.9094 10.7785C96.3658 8.80317 96.6816 6.63388 95.6639 4.39404C94.6111 2.06602 92.7337 0.725648 90.207 0.549283C88.0312 0.390554 85.8204 0.51401 83.6271 0.478737C83.1182 0.478737 82.9954 0.672739 82.9954 1.14892C83.013 7.37461 83.013 13.6003 82.9954 19.826C82.9954 20.2669 83.1007 20.4609 83.5745 20.4433C84.5044 20.408 85.4519 20.408 86.3819 20.4433C86.8907 20.4609 87.0311 20.2845 87.0311 19.7907C87.0135 18.0271 87.0135 16.2634 87.0135 14.4998C87.0135 13.4592 87.0135 12.4187 87.0135 11.2899C87.4522 11.5545 87.575 11.8896 87.768 12.1717C89.4876 14.729 91.1896 17.2863 92.9091 19.8436C93.1197 20.1611 93.2952 20.4609 93.7689 20.4609C95.1726 20.4256 96.5763 20.4433 98.1555 20.4433C97.98 20.1082 97.8748 19.9318 97.7519 19.7731ZM87.0135 4.9055C87.0135 4.53514 87.1715 4.37641 87.5399 4.39404C88.2418 4.41168 88.9437 4.35877 89.628 4.41168C91.0843 4.5175 92.1371 5.6286 92.1196 6.96897C92.102 8.29171 90.979 9.36754 89.5578 9.45572C87.0135 9.61445 87.0135 9.61445 87.0311 6.84552C87.0135 6.19297 87.0311 5.55805 87.0135 4.9055ZM30.1106 19.632C28.5489 17.4274 26.9873 15.2405 25.4257 13.0359C25.1976 12.7185 24.987 12.5068 25.5485 12.1894C27.9524 10.849 29.1455 8.15062 28.5489 5.64624C27.8822 2.84203 25.4608 0.637466 22.6884 0.51401C20.4776 0.408191 18.2492 0.478737 16.0383 0.443464C15.5821 0.443464 15.4242 0.602193 15.4242 1.06074C15.4418 7.30407 15.4418 13.565 15.4242 19.8084C15.4242 20.2669 15.5646 20.4256 16.0208 20.408C16.9332 20.3727 17.8281 20.3551 18.7405 20.408C19.3546 20.4433 19.4599 20.1964 19.4599 19.6496C19.4423 17.1805 19.4423 14.7114 19.4423 12.2599C19.4423 11.9601 19.4599 11.6427 19.495 11.1665C19.7933 11.5721 19.9863 11.819 20.1617 12.0836C21.8988 14.6585 23.6184 17.2334 25.3379 19.826C25.5485 20.1435 25.7064 20.4433 26.1977 20.4433C27.6014 20.408 29.0051 20.4256 30.5843 20.4256C30.3913 20.0553 30.2509 19.8436 30.1106 19.632ZM19.4599 5.01132C19.4423 4.57041 19.6003 4.37641 20.0565 4.39404C20.7232 4.42932 21.39 4.37641 22.0568 4.41168C23.5131 4.5175 24.5834 5.6286 24.5483 6.95134C24.5133 8.34462 23.3903 9.40281 21.9164 9.45572C19.4599 9.54391 19.4599 9.54391 19.4599 6.9337C19.4774 6.29879 19.495 5.64624 19.4599 5.01132ZM68.7828 19.6144C68.7828 20.1964 68.8881 20.4256 69.5373 20.4256C73.0466 20.3904 76.5559 20.408 80.0652 20.4256C80.5916 20.4256 80.8021 20.3022 80.767 19.7378C80.7144 18.9265 80.7144 18.0976 80.767 17.2687C80.8197 16.5809 80.6091 16.3516 79.9072 16.3692C77.8017 16.4221 75.6961 16.3692 73.5905 16.4045C72.9764 16.4221 72.7659 16.2105 72.801 15.5932C72.8536 14.782 72.8536 13.953 72.801 13.1241C72.7659 12.4716 72.9589 12.2599 73.6256 12.2776C75.4154 12.3305 77.1876 12.2776 78.9773 12.2952C79.5037 12.2952 79.7142 12.1541 79.6792 11.6074C79.6441 10.7608 79.6441 9.89664 79.6792 9.05008C79.7142 8.45044 79.5212 8.2388 78.8896 8.2388C77.0998 8.27408 75.3276 8.2388 73.5379 8.25644C72.9589 8.27408 72.7659 8.08008 72.801 7.49807C72.8536 6.70443 72.8536 5.91078 72.801 5.11714C72.7659 4.48223 72.994 4.3235 73.5905 4.34113C75.6961 4.37641 77.8017 4.3235 79.9072 4.37641C80.6267 4.39404 80.8197 4.16477 80.767 3.47694C80.7144 2.75385 80.7144 2.01311 80.767 1.27238C80.8021 0.637466 80.6267 0.408191 79.9599 0.408191C76.5033 0.443464 73.0642 0.443464 69.6075 0.408191C68.9408 0.408191 68.7653 0.602193 68.7828 1.25474C68.8179 4.27059 68.8004 7.30407 68.8004 10.3199C68.7828 13.4416 68.8004 16.528 68.7828 19.6144ZM0.000930608 19.5614C-0.0166158 20.2669 0.211488 20.4785 0.895797 20.4256C1.68539 20.3727 2.47497 20.3727 3.26456 20.4256C3.87869 20.4609 4.0717 20.2669 4.05415 19.6496C4.01906 18.0447 4.08924 16.4221 4.01906 14.7996C3.98396 14.0412 4.26471 13.8472 4.96656 13.8825C5.80879 13.9354 6.66856 13.9178 7.51079 13.8825C10.9674 13.7414 13.9152 10.7432 13.9503 7.3217C13.9679 3.63567 11.0727 0.584556 7.37042 0.478737C5.17712 0.408191 2.98382 0.478737 0.790519 0.443464C0.158848 0.425827 0.000930608 0.637466 0.000930608 1.25474C0.0360234 4.28822 0.0184771 7.35698 0.0184771 10.4081C0.0184771 13.4592 0.0360234 16.5103 0.000930608 19.5614ZM4.0366 6.82788C4.35244 6.05188 3.3172 4.65859 4.58054 4.46459C7.80908 3.97077 9.63391 4.9055 9.96729 6.82788C10.1954 8.09771 9.1777 9.491 7.80908 9.82609C6.7212 10.0906 5.59823 9.91427 4.49281 9.94954C4.0717 9.96718 4.0366 9.685 4.0366 9.36754C4.0366 8.62681 4.0366 7.90371 4.0366 7.16298C4.0366 7.05716 4.00151 6.9337 4.0366 6.82788ZM53.342 19.632C53.342 20.2493 53.5175 20.4433 54.1316 20.408C54.9387 20.3551 55.7634 20.3551 56.5881 20.408C57.1847 20.4433 57.4128 20.2669 57.3952 19.632C57.3601 17.9918 57.4128 16.3516 57.3601 14.6938C57.3426 14.0236 57.5707 13.8296 58.2024 13.8649C59.0797 13.9178 59.957 13.9001 60.8343 13.8649C64.2208 13.7238 67.1861 10.7785 67.2738 7.48043C67.3791 3.65331 64.4664 0.549283 60.6238 0.443464C58.4655 0.390554 56.3073 0.443464 54.1316 0.408191C53.5175 0.390555 53.3245 0.584556 53.342 1.20183C53.3771 4.25295 53.3595 7.30407 53.3595 10.3552C53.342 13.4768 53.3595 16.5632 53.342 19.632ZM57.3601 4.95841C57.3601 4.67623 57.3777 4.39404 57.7461 4.41168C58.8516 4.44695 59.9745 4.27059 61.0624 4.53514C62.3959 4.85259 63.3259 5.98133 63.3259 7.21589C63.3084 8.46808 62.3082 9.59682 60.9396 9.879C59.9219 10.0906 58.9042 9.93191 57.8865 9.98482C57.4303 10.0025 57.3601 9.75554 57.3601 9.38518C57.3777 8.64444 57.3601 7.92135 57.3601 7.18061C57.3601 6.42224 57.3777 5.68151 57.3601 4.95841Z" fill="#FCBA6A"/>
</svg>
