<svg width="67" height="46" viewBox="0 0 67 46" fill="none" xmlns="http://www.w3.org/2000/svg">
<path d="M58.4319 22.7891C55.6245 21.5721 54.8174 19.1207 54.1857 16.581C53.7295 14.7997 53.7997 12.9655 53.7821 11.149C53.7821 9.9144 53.6418 8.69748 53.1329 7.53347C52.7118 6.59873 52.0801 6.03436 50.9747 6.10491C50.0798 6.15782 49.1674 6.052 48.255 6.06964C47.7988 6.06964 47.6584 5.92855 47.6584 5.45236C47.676 3.8298 47.676 2.22488 47.6584 0.602318C47.6584 0.126132 47.8164 0.0026761 48.2726 0.0026761C50.1149 0.0203126 51.9573 -0.0325968 53.7997 0.0379493C57.6774 0.179041 60.5726 3.26543 60.6603 7.30419C60.6954 9.06785 60.6428 10.8315 60.6954 12.5951C60.7481 14.8526 61.3622 16.9337 62.801 18.715C63.5204 19.6145 64.3977 20.2847 65.5733 20.4081C66.0646 20.461 66.1173 20.7079 66.1173 21.1136C66.0997 22.2247 66.1173 23.3534 66.1173 24.4645C66.1173 24.7643 66.1524 25.0465 65.7312 25.1171C63.3976 25.4698 62.3272 27.1982 61.5025 29.1382C60.8709 30.602 60.6779 32.1893 60.6954 33.7766C60.713 35.3286 60.713 36.8806 60.6954 38.4503C60.6779 42.6654 57.5546 46.1574 53.168 45.9634C51.5713 45.8929 49.957 45.9282 48.3427 45.9634C47.8514 45.9634 47.676 45.84 47.6935 45.3285C47.7286 43.7412 47.7286 42.1539 47.6935 40.5667C47.676 40.0552 47.8514 39.9141 48.3427 39.9317C49.2727 39.967 50.2202 39.9141 51.1502 39.9494C52.0626 39.9847 52.6416 39.579 53.0452 38.803C53.6944 37.5332 53.8348 36.1752 53.8348 34.7819C53.8348 32.348 53.7997 29.8966 54.6068 27.5509C55.256 25.5404 56.1333 23.6356 58.4319 22.7891ZM12.2498 18.1507C13.1096 15.7344 13.1096 13.1948 13.1096 10.6728C13.1096 9.49112 13.3201 8.34475 13.8641 7.26892C14.2676 6.49291 14.8467 6.08727 15.7591 6.12255C16.6539 6.15782 17.5664 6.052 18.4788 6.08727C19.1104 6.10491 19.2508 5.858 19.2333 5.25836C19.1982 3.75925 19.1982 2.26015 19.2333 0.761046C19.2508 0.179041 19.0753 0.0026761 18.5139 0.0026761C16.847 0.0379491 15.18 0.00267617 13.5131 0.0203127C9.40728 0.0379492 6.31911 3.08907 6.24892 7.21601C6.23137 8.71512 6.26647 10.2142 6.23138 11.7133C6.19628 13.2653 6.05591 14.8173 5.44179 16.2812C4.61711 18.2917 3.54677 20.073 1.12537 20.4434C0.791986 20.4963 0.791992 20.7079 0.791992 20.9549C0.791992 22.1541 0.809539 23.3711 0.791992 24.5703C0.791992 24.9936 0.949906 25.1171 1.33593 25.17C2.44135 25.3111 3.28358 25.9284 3.96789 26.7573C5.24878 28.2916 5.86291 30.0906 6.09101 32.0659C6.3542 34.4115 6.14365 36.7572 6.23138 39.1028C6.3542 42.6478 9.24936 45.7694 12.6709 45.9458C14.6537 46.0516 16.6364 45.9634 18.6367 45.9987C19.128 45.9987 19.2333 45.8047 19.2157 45.3638C19.1982 44.5172 19.2157 43.6531 19.2157 42.8065C19.1982 41.907 19.514 40.6901 19.0578 40.1787C18.5314 39.579 17.3032 40.0023 16.3732 39.9847C14.4431 39.9494 13.9693 39.5967 13.4079 37.7095C12.9867 36.2986 13.092 34.8701 13.0745 33.4239C13.0569 31.3957 12.9166 29.3675 12.2323 27.4451C11.5128 25.4169 10.6004 23.5298 8.31939 22.7891C10.6004 22.0483 11.5479 20.1788 12.2498 18.1507Z" fill="#E5E5E5"/>
</svg>
